<svg version="1.1" id="Layer_1" xmlns="http://www.w3.org/2000/svg" xmlns:xlink="http://www.w3.org/1999/xlink" x="0px" y="0px"
	 width="100%" viewBox="0 0 567 440" enable-background="new 0 0 567 440" xml:space="preserve">
<path fill="#000000" opacity="1.000000" stroke="none" 
	d="
M396.000000,441.000000 
	C264.000031,441.000000 132.500061,441.000000 1.000071,441.000000 
	C1.000047,294.333405 1.000047,147.666794 1.000023,1.000100 
	C95.499908,1.000000 189.999817,1.000000 284.499725,1.000000 
	C378.999725,1.000000 473.499695,1.000000 567.999756,1.000000 
	C567.999878,147.666519 567.999878,294.333038 567.999939,440.999786 
	C510.833344,441.000000 453.666656,441.000000 396.000000,441.000000 
M506.020752,223.983414 
	C506.020752,223.983414 506.006622,224.037064 506.652832,223.613892 
	C507.078308,222.564560 507.723541,221.549423 507.893066,220.460236 
	C508.884766,214.088791 507.933472,213.039673 501.405701,213.026016 
	C499.378693,213.021774 497.351715,213.025375 495.316162,213.025375 
	C495.614197,210.794891 495.803955,209.374802 496.162415,207.205856 
	C494.712097,200.450989 493.667633,193.577271 491.731049,186.964798 
	C486.976379,170.729782 481.846497,154.603912 476.789368,138.458618 
	C475.193207,133.362717 474.546692,127.306526 471.303009,123.564217 
	C467.596252,119.287666 468.246552,115.039803 468.149261,110.696281 
	C467.966156,102.523186 469.144592,94.279053 468.490906,86.166473 
	C467.495972,73.819557 465.495300,61.549156 463.732727,49.273399 
	C463.459778,47.372532 462.181030,45.616077 460.871185,42.680752 
	C459.621826,45.106747 458.606659,46.275356 458.428314,47.560131 
	C457.549011,53.893921 456.902802,60.259830 456.152649,66.611839 
	C455.311432,73.734718 454.446991,80.854851 452.863739,87.962524 
	C442.269196,89.507507 431.674652,91.052498 420.806519,92.637375 
	C420.806519,94.055733 420.806519,95.848846 420.215759,97.329697 
	C418.955994,97.596733 417.706085,97.929565 416.434814,98.119797 
	C409.773499,99.116562 403.073608,100.546089 397.455536,94.913094 
	C396.567200,94.022377 394.595306,93.196259 393.619446,93.584526 
	C389.357239,95.280319 384.710693,96.767479 381.321442,99.646332 
	C378.863770,101.733864 374.313782,104.186577 376.937744,109.347160 
	C377.338623,110.135567 375.983521,111.816841 375.031860,113.529907 
	C370.273376,117.982559 367.782440,123.570068 366.167847,130.178299 
	C362.491638,131.138290 358.815430,132.098282 354.443024,133.152222 
	C352.155182,142.308624 349.808990,151.450928 347.596802,160.625565 
	C345.588623,168.954147 343.726410,177.317947 341.146240,186.054474 
	C340.766724,187.779449 340.387238,189.504410 340.286438,189.962463 
	C333.564423,192.486069 327.764191,194.867615 321.808777,196.760788 
	C320.255249,197.254639 318.218109,196.227264 316.105865,195.019501 
	C314.257202,194.341904 312.352325,192.966965 310.569916,193.110718 
	C303.835938,193.653748 297.141785,194.689987 289.987091,195.182007 
	C289.478394,188.869263 296.406708,189.174026 299.066284,185.393112 
	C300.690125,183.084595 303.096497,181.678986 303.162964,177.888809 
	C304.096924,177.887421 305.127380,178.147430 305.949707,177.843750 
	C313.208740,175.162933 320.469879,172.477066 327.626526,169.539673 
	C328.859528,169.033600 329.602142,167.332748 331.580078,164.987778 
	C323.441956,164.987778 317.020660,164.987778 309.683716,164.987778 
	C312.282471,161.966171 313.157959,158.883759 317.570648,160.405579 
	C321.804535,161.865692 326.405243,162.262177 330.844727,163.126099 
	C331.221069,162.358963 331.597382,161.591843 331.973724,160.824707 
	C328.399811,158.077087 324.825867,155.329468 321.449951,151.861191 
	C322.780029,150.874725 324.079285,149.842896 325.447906,148.913132 
	C327.214447,147.713058 329.036407,146.594604 330.834503,145.440994 
	C330.532135,144.774658 330.229767,144.108307 329.927368,143.441971 
	C324.298340,144.679413 318.803497,146.334396 313.290161,150.214783 
	C308.012115,154.982391 302.734070,159.750000 296.827881,164.348526 
	C292.658295,163.506546 289.586823,165.570312 286.466522,167.952438 
	C282.703125,170.825500 278.701111,173.388763 274.773468,176.043365 
	C267.371735,181.046082 267.363129,181.033371 261.717896,173.366653 
	C261.354675,172.539841 260.684021,171.716583 260.674377,170.885666 
	C260.534424,158.832092 260.483002,146.777496 260.959473,133.872772 
	C260.677368,130.496719 260.395233,127.120682 260.608917,123.335106 
	C262.655914,120.921188 264.702911,118.507278 267.395569,116.323853 
	C270.346863,117.491760 273.298126,118.659668 276.620514,119.974426 
	C278.098846,117.509796 279.631989,114.953766 281.154175,112.416039 
	C279.711609,111.104401 278.443146,109.951088 276.702087,108.368065 
	C280.324371,107.757622 285.721802,113.318764 285.275208,105.806702 
	C287.370667,105.566833 288.999634,105.380363 290.124817,105.251572 
	C289.769623,102.156906 289.121246,99.692230 289.285950,97.283157 
	C289.633270,92.204384 290.341827,87.145409 291.068146,82.102211 
	C291.190125,81.255257 292.145294,80.528290 293.412262,79.724060 
	C298.028473,77.971954 300.169891,74.600052 300.295105,69.504303 
	C299.231262,69.314247 298.272797,68.812576 297.686066,69.091850 
	C293.905304,70.891373 292.790436,68.895790 291.207855,65.740150 
	C289.251282,61.838753 286.423248,58.236237 283.384399,55.067909 
	C281.578552,53.185104 279.211395,50.563229 275.650574,52.957771 
	C274.989685,53.402214 272.862885,52.555573 272.032013,51.701942 
	C268.739990,48.319817 265.052094,48.323948 261.105438,49.979115 
	C257.013916,51.695026 252.985992,53.562611 248.859695,55.395195 
	C248.425003,57.069248 248.571854,60.278103 247.051895,61.680763 
	C241.508774,66.796120 241.452530,72.382980 243.367950,79.081070 
	C244.985504,84.737625 246.463425,90.927536 240.335541,95.414345 
	C240.147522,95.552002 240.210266,96.032120 240.140778,96.443336 
	C242.094696,98.614685 244.083359,100.824631 245.876251,103.696281 
	C243.155945,106.380035 240.435638,109.063797 237.197815,111.551491 
	C235.327438,111.900078 233.457077,112.248665 231.380280,113.129456 
	C228.244049,116.739189 225.358231,120.608940 221.927551,123.912933 
	C208.212524,137.121490 197.297394,152.399353 188.418961,169.130692 
	C179.972000,185.048935 174.867691,202.071609 172.152481,219.881760 
	C170.779053,212.562424 169.437332,205.236954 168.023727,197.925385 
	C166.436447,189.715408 165.061630,181.449097 163.048996,173.342712 
	C161.962311,168.965805 156.624603,166.965103 151.269775,168.069107 
	C146.737366,169.003586 142.630798,173.737259 143.203354,177.958847 
	C144.595032,188.219833 146.381683,198.427780 147.735504,208.693176 
	C148.476791,214.314011 148.662338,220.008118 148.469330,226.060059 
	C146.197922,227.331314 143.618744,228.251862 141.705292,229.931030 
	C129.644073,240.515274 122.786583,253.767212 121.311523,269.561432 
	C120.884682,268.757324 120.457840,267.953186 119.935974,266.970032 
	C119.577637,269.646667 119.287567,271.813354 118.604523,273.297302 
	C116.414757,268.191040 114.224991,263.084747 111.782173,257.260010 
	C109.498688,253.195862 107.215202,249.131714 104.838394,244.409500 
	C104.449623,240.760086 104.606857,236.942978 103.549057,233.499054 
	C101.792755,227.781036 99.451157,222.215347 97.001740,216.744110 
	C93.321884,208.524475 89.767830,200.199326 85.367676,192.364182 
	C80.224846,183.206589 72.250252,177.876328 61.274422,178.919846 
	C55.464951,179.472183 50.364429,181.753372 47.435966,187.394562 
	C44.803131,192.466278 46.893791,197.234100 49.685902,200.801392 
	C55.659031,208.432846 61.867332,216.170456 69.255402,222.335297 
	C79.997101,231.298508 91.864914,238.912155 103.514984,247.697906 
	C105.780891,251.468430 108.046791,255.238968 110.266624,259.707886 
	C116.705704,272.394012 121.461998,285.602692 124.258972,300.684601 
	C121.515785,299.248444 120.287781,298.605530 118.620537,297.443604 
	C115.780701,296.086639 112.940872,294.729706 109.504135,292.959595 
	C109.128784,292.630127 108.798271,292.220001 108.371613,291.982819 
	C92.712242,283.278015 76.312675,276.391388 58.599895,273.330048 
	C52.285805,272.238770 45.527843,272.645203 40.064651,276.668945 
	C34.323551,280.897400 32.056335,287.384460 31.063459,294.188599 
	C30.286018,299.516418 34.032146,305.637756 38.774536,307.867432 
	C48.337013,312.363312 58.410847,311.400482 67.927917,308.995300 
	C82.502563,305.311920 96.707565,300.165894 111.699272,295.963806 
	C113.808693,296.959808 115.918114,297.955811 118.474792,299.454376 
	C119.817245,300.896210 121.144592,302.352478 122.504700,303.777466 
	C129.389847,310.990967 129.596603,320.341797 130.397873,329.827576 
	C130.485443,330.517822 130.573013,331.208069 130.841690,333.325989 
	C123.093765,322.525970 113.941376,317.256165 101.730316,319.027832 
	C94.133568,320.130035 86.970779,322.457489 81.544991,328.315094 
	C78.856750,331.217255 79.324867,333.256989 83.132072,334.220520 
	C93.962234,336.961456 104.960251,337.659973 116.090919,336.421478 
	C121.919464,335.772919 127.856857,334.980042 133.179611,340.158020 
	C134.777130,348.960052 136.470566,357.747620 137.807709,366.589020 
	C137.927185,367.378998 135.807175,369.245911 134.603958,369.364777 
	C130.317200,369.788239 125.977142,369.672455 120.907257,370.441650 
	C120.703400,380.533081 120.353104,390.624390 120.345757,400.715942 
	C120.340630,407.766388 123.312218,410.400757 130.220749,410.348297 
	C137.693939,410.291534 145.176773,410.107056 152.637833,410.410400 
	C156.641556,410.573151 159.727051,409.718872 162.474930,406.309784 
	C162.978622,407.591644 163.482315,408.873535 164.288269,410.711365 
	C169.458160,412.814362 169.274979,408.077576 169.834671,405.728790 
	C175.082108,383.707153 180.021500,361.612213 185.091431,339.548004 
	C186.493744,333.445221 188.034637,327.374298 189.511948,321.288757 
	C190.696167,322.671448 191.066422,323.967407 190.807907,325.122681 
	C188.022873,337.568176 185.154602,349.995148 182.277679,362.419922 
	C178.907471,376.975037 175.436523,391.507629 172.231293,406.098755 
	C171.927322,407.482513 173.204208,409.213531 173.747162,410.783325 
	C174.879532,409.539703 176.656586,408.467896 177.041138,407.024933 
	C179.834686,396.542633 182.412781,386.001068 184.933487,375.448273 
	C188.412109,360.885101 191.506851,346.222961 195.343567,331.756378 
	C196.698227,326.648621 199.750412,321.991028 202.507477,316.718231 
	C205.997238,315.184509 209.486984,313.650787 213.616104,311.586945 
	C213.871689,309.839844 214.127289,308.092712 214.435760,305.984131 
	C233.588242,305.984131 252.483780,305.946136 271.378174,306.073151 
	C272.583466,306.081238 273.780121,307.368866 275.010254,308.852478 
	C276.361786,315.603485 277.713348,322.354462 278.993805,329.911255 
	C277.176636,336.612213 275.114807,343.259155 273.619171,350.031128 
	C272.408661,355.512146 269.169617,360.787384 271.063354,367.420380 
	C268.110931,374.179443 265.167877,380.900909 258.108734,384.621857 
	C254.936829,386.293762 254.376938,388.566406 257.284882,391.222565 
	C262.204987,395.716766 267.061707,400.280334 271.732452,405.310883 
	C271.716339,405.489777 271.700226,405.668671 270.791321,405.918945 
	C264.227356,405.526337 257.663422,405.133728 250.037430,404.677612 
	C250.832001,407.058319 251.336365,408.569519 252.466599,410.672699 
	C261.440247,410.780426 270.413666,410.934509 279.387634,410.983398 
	C289.204987,411.036896 299.022919,411.002808 308.840546,410.984711 
	C311.155365,410.980438 313.454926,410.778595 312.706207,407.467010 
	C309.119812,391.605072 305.492493,375.752441 302.148071,359.354187 
	C302.285095,358.616180 302.220062,357.752502 302.589172,357.158783 
	C309.217712,346.498169 315.898773,335.870178 322.806885,325.935394 
	C327.246307,336.569946 331.685699,347.204498 336.011292,358.668213 
	C336.292816,360.764832 337.084106,362.940277 336.773926,364.945374 
	C334.604187,378.970520 332.174408,392.955353 329.940979,406.971100 
	C329.752899,408.151276 330.395081,410.541901 330.648621,410.541473 
	C332.453278,410.538544 334.480286,410.452667 335.985138,409.598206 
	C337.039673,408.999420 337.723846,407.210114 337.984375,405.840424 
	C339.455658,398.105194 340.625000,390.311310 342.171295,382.592285 
	C342.698059,379.962860 344.020599,377.492859 345.411163,375.388092 
	C346.279419,377.905029 347.267334,380.388092 347.990814,382.945984 
	C349.456512,388.127960 352.465881,393.032898 350.919342,398.788208 
	C350.405487,400.700531 346.613007,402.364594 349.877655,405.046265 
	C347.372711,406.158295 345.123810,407.332367 349.259796,410.642792 
	C358.797241,410.774628 368.334320,410.950958 377.872192,411.024567 
	C385.839722,411.086060 393.809387,411.107819 401.775696,410.988403 
	C405.852539,410.927307 406.302979,410.011261 404.382446,405.410217 
	C398.058838,401.721893 391.735229,398.033600 385.017456,393.823151 
	C383.179474,393.041748 381.341492,392.260315 379.500610,391.477631 
	C377.990662,392.858643 376.374969,394.336365 374.440521,395.386108 
	C371.930145,393.910339 368.031433,392.990906 367.174530,390.852539 
	C364.778473,384.873199 363.640594,378.389679 362.624237,372.086823 
	C363.524780,371.939087 364.595917,372.055176 365.298370,371.600983 
	C370.056641,368.524536 367.436157,364.608368 366.626312,360.695709 
	C363.004974,343.199554 359.595490,325.659576 356.062286,307.310425 
	C356.696350,304.598358 357.444427,301.907166 357.945831,299.170776 
	C360.930969,282.877991 363.910706,266.583862 366.785583,250.271362 
	C368.322327,241.551743 369.645142,232.794434 371.988892,224.014359 
	C405.971558,224.027832 439.954254,224.041290 473.978241,224.908905 
	C476.301788,238.021835 478.583618,251.142303 480.958191,264.246002 
	C485.008423,286.596222 489.112976,308.936646 493.201843,331.279877 
	C497.470215,354.603973 501.716217,377.932251 506.063965,401.241608 
	C506.541718,403.803131 507.133148,406.608063 508.598389,408.627960 
	C509.578400,409.979004 512.198914,410.140045 514.085388,410.833588 
	C514.528564,409.165405 515.578064,407.397369 515.322266,405.844299 
	C512.357788,387.845123 509.161102,369.884338 506.096313,351.901428 
	C502.864441,332.938171 499.713196,313.961182 496.517792,294.991699 
	C494.030640,280.226562 491.598450,265.451691 489.004944,250.705215 
	C487.782349,243.753616 486.238434,236.858551 484.966187,229.084564 
	C484.565735,225.890701 485.936584,224.913788 489.141876,224.909500 
	C494.784027,224.901978 500.425446,224.342285 506.020752,223.983414 
z"/>
<path fill="#E84D4F" opacity="1.000000" stroke="none" 
	d="
M336.125122,357.839050 
	C331.685699,347.204498 327.246307,336.569946 322.699341,325.231750 
	C319.456543,315.326202 315.883331,306.244781 313.310730,296.888184 
	C310.803131,287.768005 309.102356,286.247162 299.758484,288.256104 
	C298.794373,288.463409 297.870331,288.857208 296.577423,289.077728 
	C293.789001,284.350098 289.718231,283.895416 284.956635,283.918671 
	C255.317017,284.063507 225.676224,283.968689 195.862381,283.663177 
	C192.762833,281.283417 189.836746,279.193848 187.016235,276.767029 
	C197.225342,268.871246 207.328857,261.312714 217.794083,253.821991 
	C222.798950,252.279175 227.427795,250.625809 232.087952,249.065979 
	C245.184753,244.682251 258.294464,240.337067 271.825378,235.840866 
	C289.956726,235.129990 307.512329,235.966461 324.436981,241.855377 
	C337.192841,246.293747 347.094910,253.437302 348.962952,268.189697 
	C349.452209,272.053467 350.805542,275.807800 351.747375,280.008820 
	C350.830109,286.984283 350.078125,293.588165 348.997040,300.137756 
	C345.641541,320.466644 342.161011,340.774933 338.645691,361.584442 
	C337.561584,359.973541 336.843353,358.906281 336.125122,357.839050 
z"/>
<path fill="#4074E6" opacity="1.000000" stroke="none" 
	d="
M290.432709,195.541641 
	C297.141785,194.689987 303.835938,193.653748 310.569916,193.110718 
	C312.352325,192.966965 314.257202,194.341904 316.265137,195.779083 
	C317.063293,201.136734 317.702179,205.734802 318.248840,210.721619 
	C318.293304,215.930710 315.022644,219.546936 308.390656,220.607346 
	C294.691345,222.797775 280.925751,224.573959 266.733032,226.370026 
	C255.154755,226.477692 244.030991,226.739166 232.907043,226.992508 
	C228.013199,227.103973 223.854584,225.587250 220.392181,221.936462 
	C211.852005,212.931702 210.571716,201.652679 210.310699,190.148468 
	C210.881927,190.083359 211.230713,189.951996 211.579498,189.820618 
	C211.070007,189.535797 210.560516,189.250977 209.807312,188.665878 
	C209.428299,186.236450 209.293015,184.107315 209.395523,181.642593 
	C210.431747,171.572556 210.155685,161.597198 212.272018,152.158218 
	C215.736420,136.706650 221.727875,131.137100 236.814529,133.369110 
	C238.333221,133.593765 239.952820,133.136429 240.995773,133.043030 
	C241.866791,134.455185 242.443756,135.785980 243.361557,136.811813 
	C247.924942,141.912292 250.777420,147.512817 251.188736,154.637131 
	C251.587509,161.543869 253.561340,168.290649 253.416946,175.361099 
	C253.309738,180.610229 254.718109,185.872620 254.933090,191.150192 
	C255.255585,199.067673 255.062454,199.075546 263.468262,198.954697 
	C272.733154,197.818954 281.582916,196.680298 290.432709,195.541641 
z"/>
<path fill="#6F4437" opacity="1.000000" stroke="none" 
	d="
M336.068207,358.253632 
	C336.843353,358.906281 337.561584,359.973541 338.645691,361.584442 
	C342.161011,340.774933 345.641541,320.466644 348.997040,300.137756 
	C350.078125,293.588165 350.830109,286.984283 351.890869,279.770111 
	C353.857513,268.533234 355.624420,257.924194 357.487854,247.332138 
	C358.908752,239.255508 360.452148,231.200409 362.014709,222.840790 
	C352.055786,222.387314 342.023163,222.228760 331.701477,221.864746 
	C331.201233,219.275604 330.990082,216.891953 330.733673,213.997131 
	C333.484833,213.997131 335.258606,213.997131 337.420166,213.999268 
	C339.506989,213.641037 341.205994,213.280685 343.214325,213.213013 
	C344.659180,213.669434 345.794708,213.975967 346.930237,213.976044 
	C376.962830,213.978088 406.995453,213.948486 437.493469,213.964157 
	C455.631317,213.997757 473.303772,213.991486 491.444702,213.996582 
	C493.219238,214.012009 494.525299,214.018982 495.831390,214.019623 
	C505.891327,214.024567 505.891327,214.024200 506.006622,224.037064 
	C506.006622,224.037064 506.020752,223.983414 505.569672,223.996429 
	C499.669556,224.008011 494.220245,223.972366 488.771576,224.015091 
	C483.671997,224.055069 483.352356,224.574402 484.840088,229.937866 
	C486.238434,236.858551 487.782349,243.753616 489.004944,250.705215 
	C491.598450,265.451691 494.030640,280.226562 496.517792,294.991699 
	C499.713196,313.961182 502.864441,332.938171 506.096313,351.901428 
	C509.161102,369.884338 512.357788,387.845123 515.322266,405.844299 
	C515.578064,407.397369 514.528564,409.165405 514.085327,410.833588 
	C512.198914,410.140045 509.578400,409.979004 508.598389,408.627960 
	C507.133148,406.608063 506.541718,403.803131 506.063965,401.241608 
	C501.716217,377.932251 497.470215,354.603973 493.201843,331.279877 
	C489.112976,308.936646 485.008423,286.596222 480.958191,264.246002 
	C478.583618,251.142303 476.301788,238.021835 473.673767,224.181976 
	C472.562042,223.306046 471.754852,223.027313 470.947479,223.026733 
	C438.873047,223.003464 406.798584,222.993896 374.724243,223.048477 
	C373.503754,223.050552 372.284393,223.704132 371.064484,224.054123 
	C369.645142,232.794434 368.322327,241.551743 366.785583,250.271362 
	C363.910706,266.583862 360.930969,282.877991 357.945831,299.170776 
	C357.444427,301.907166 356.696350,304.598358 355.719055,307.840393 
	C354.819305,310.723175 354.180023,313.059875 353.719513,315.431305 
	C350.482269,332.102478 347.081360,348.747375 344.287689,365.493256 
	C343.872803,367.980072 340.916107,371.536011 344.985870,374.218109 
	C344.993622,374.462067 344.979523,374.950012 344.979523,374.950012 
	C344.020599,377.492859 342.698059,379.962860 342.171295,382.592285 
	C340.625000,390.311310 339.455658,398.105194 337.984375,405.840424 
	C337.723846,407.210114 337.039673,408.999420 335.985138,409.598206 
	C334.480286,410.452667 332.453278,410.538544 330.648621,410.541473 
	C330.395081,410.541901 329.752899,408.151276 329.940979,406.971100 
	C332.174408,392.955353 334.604187,378.970520 336.773926,364.945374 
	C337.084106,362.940277 336.292816,360.764832 336.068207,358.253632 
z"/>
<path fill="#2D64D4" opacity="1.000000" stroke="none" 
	d="
M263.053162,198.951767 
	C255.062454,199.075546 255.255585,199.067673 254.933090,191.150192 
	C254.718109,185.872620 253.309738,180.610229 253.416946,175.361099 
	C253.561340,168.290649 251.587509,161.543869 251.188736,154.637131 
	C250.777420,147.512817 247.924942,141.912292 243.361557,136.811813 
	C242.443756,135.785980 241.866791,134.455185 240.995773,133.043030 
	C239.952820,133.136429 238.333221,133.593765 236.814529,133.369110 
	C221.727875,131.137100 215.736420,136.706650 212.272018,152.158218 
	C210.155685,161.597198 210.431747,171.572556 209.084473,181.915588 
	C208.024979,191.407318 206.927109,200.309708 207.216537,209.166733 
	C207.399979,214.780182 209.649353,220.326126 210.580460,225.941879 
	C207.821335,226.642563 205.421921,227.207260 203.091888,227.980881 
	C190.163315,232.273422 181.516998,241.375397 175.078705,252.592255 
	C174.284119,246.779984 173.558990,241.382751 172.890015,235.577026 
	C172.936584,230.116470 172.927017,225.064407 172.917450,220.012329 
	C174.867691,202.071609 179.972000,185.048935 188.418961,169.130692 
	C197.297394,152.399353 208.212524,137.121490 221.927551,123.912933 
	C225.358231,120.608940 228.244049,116.739189 231.557495,113.189621 
	C236.876038,124.825859 247.474503,130.178253 257.729492,135.867294 
	C258.251068,136.156631 259.500122,135.134598 260.410461,134.723145 
	C260.483002,146.777496 260.534424,158.832092 260.674377,170.885666 
	C260.684021,171.716583 261.354675,172.539841 261.531372,174.018188 
	C261.914276,182.763748 262.483734,190.857758 263.053162,198.951767 
z"/>
<path fill="#6E4537" opacity="1.000000" stroke="none" 
	d="
M196.035828,283.953339 
	C225.676224,283.968689 255.317017,284.063507 284.956635,283.918671 
	C289.718231,283.895416 293.789001,284.350098 296.541870,289.457581 
	C295.823792,293.530060 295.902924,298.419403 293.528412,300.476624 
	C288.470734,304.858459 289.771912,309.278259 290.913818,314.318451 
	C293.066895,323.821625 294.873108,333.404297 297.089294,342.891846 
	C298.427429,348.620483 300.266022,354.232208 301.879730,359.896484 
	C305.492493,375.752441 309.119812,391.605072 312.706207,407.467010 
	C313.454926,410.778595 311.155365,410.980438 308.840546,410.984711 
	C299.022919,411.002808 289.204987,411.036896 279.387634,410.983398 
	C270.413666,410.934509 261.440247,410.780426 252.633209,410.323273 
	C271.009186,409.973846 289.218536,409.973846 307.427887,409.973846 
	C307.761047,409.542969 308.094208,409.112091 308.427368,408.681244 
	C307.228577,407.160767 306.029816,405.640289 305.149658,404.052429 
	C305.726074,403.807373 306.233154,403.565582 306.206299,403.461090 
	C303.152649,391.581604 300.059296,379.712311 296.986267,367.407013 
	C296.914734,364.826843 297.148895,362.608917 296.683197,360.549164 
	C293.486755,346.411316 290.165527,332.301453 286.803864,318.201782 
	C286.554077,317.154083 285.675964,316.256226 284.628387,314.526611 
	C283.893951,318.031708 283.690918,320.558380 282.799988,322.813263 
	C281.915100,325.052948 280.338287,327.019257 279.064911,329.105469 
	C277.713348,322.354462 276.361786,315.603485 275.004456,308.034241 
	C275.218109,303.456726 272.482208,304.044342 270.240234,304.041931 
	C252.035919,304.022552 233.831467,304.005859 215.627396,304.075256 
	C214.061340,304.081238 212.497696,304.713348 210.621643,304.904907 
	C204.762299,300.848450 198.808136,297.889191 191.825714,299.112244 
	C187.502975,299.869415 183.326721,301.462982 179.056671,302.282654 
	C179.122742,296.738647 177.427155,292.491241 172.771118,289.449463 
	C172.145355,288.816803 171.645462,288.401031 171.081573,287.982727 
	C171.017578,287.980164 171.026733,287.852417 170.920547,287.588165 
	C170.700394,286.963837 170.586441,286.603790 170.693848,285.970978 
	C172.266174,284.847717 173.617126,283.997162 175.142853,283.452881 
	C176.583939,287.036926 179.744629,288.307281 181.983353,286.565826 
	C186.454025,283.088165 191.287262,284.333710 196.035828,283.953339 
z"/>
<path fill="#A3BAD5" opacity="1.000000" stroke="none" 
	d="
M490.976227,213.985229 
	C473.303772,213.991486 455.631317,213.997757 437.466797,213.630417 
	C436.702728,212.458923 436.430725,211.661041 436.385223,210.507141 
	C452.898224,209.975113 469.185181,209.826355 485.470459,209.570251 
	C486.744080,209.550232 488.041016,208.863266 489.266968,208.344238 
	C493.985138,206.346786 491.050934,203.278351 490.229065,200.610046 
	C486.927734,189.892075 483.434204,179.232239 480.226410,168.486816 
	C477.405457,159.037354 474.917023,149.489120 472.189972,140.010910 
	C470.833130,135.295181 469.270538,130.638672 467.800995,125.955368 
	C466.395996,128.947327 466.081421,131.735306 465.416229,134.436935 
	C462.527283,146.169891 459.908813,157.988708 456.461945,169.558823 
	C453.789825,178.528305 450.201508,187.243118 446.658203,195.923279 
	C445.643951,198.407959 443.345886,200.283844 441.012024,198.103912 
	C441.269440,193.834183 441.246246,190.153366 441.763031,186.550003 
	C442.654449,180.334717 444.116180,174.197723 444.916565,167.973602 
	C446.355042,156.787247 447.547363,145.567505 448.694702,134.346573 
	C449.010712,131.256378 448.802887,128.112610 449.021423,124.646500 
	C450.012512,120.321022 451.124969,116.375587 451.558105,112.356934 
	C452.431732,104.251083 452.936005,96.105423 453.592621,87.976181 
	C454.446991,80.854851 455.311432,73.734718 456.152649,66.611839 
	C456.902802,60.259830 457.549011,53.893921 458.428314,47.560131 
	C458.606659,46.275356 459.621826,45.106747 460.871185,42.680752 
	C462.181030,45.616077 463.459778,47.372532 463.732727,49.273399 
	C465.495300,61.549156 467.495972,73.819557 468.490906,86.166473 
	C469.144592,94.279053 467.966156,102.523186 468.149261,110.696281 
	C468.246552,115.039803 467.596252,119.287666 471.303009,123.564217 
	C474.546692,127.306526 475.193207,133.362717 476.789368,138.458618 
	C481.846497,154.603912 486.976379,170.729782 491.731049,186.964798 
	C493.667633,193.577271 494.712097,200.450989 495.778198,207.740524 
	C493.921387,210.178543 492.448792,212.081879 490.976227,213.985229 
z"/>
<path fill="#FEC548" opacity="1.000000" stroke="none" 
	d="
M341.799835,185.666214 
	C343.726410,177.317947 345.588623,168.954147 347.596802,160.625565 
	C349.808990,151.450928 352.155182,142.308624 355.079102,133.379669 
	C359.411987,133.781525 363.108856,133.955917 366.873596,134.555786 
	C367.707794,136.961227 368.474091,138.941208 369.240356,140.921188 
	C369.891968,138.971680 370.543610,137.022171 371.587738,135.129395 
	C374.091797,135.466324 376.229797,135.620926 378.308319,136.058212 
	C380.957794,136.615631 383.559235,137.401627 386.142883,138.491150 
	C385.355927,142.516846 387.203918,143.568939 390.692352,143.377625 
	C390.872894,141.515854 391.044678,139.744583 391.651337,137.985107 
	C404.002350,137.869354 402.050537,139.028885 401.967224,148.167267 
	C401.792358,167.352036 401.425415,186.535034 400.755432,205.784546 
	C394.580750,205.270004 388.789581,204.672470 382.994690,204.113983 
	C376.712158,203.508469 370.426086,202.939301 363.813293,202.202072 
	C362.328674,201.725250 361.172333,201.400635 359.849884,200.881561 
	C359.984039,199.746368 360.284241,198.805618 360.744232,197.364258 
	C357.388763,198.779816 354.653381,199.933792 351.500305,201.049164 
	C347.073944,200.642868 343.065247,200.275162 339.103149,199.577637 
	C342.409790,196.254471 345.669861,193.261124 348.929932,190.267792 
	C348.711761,189.862305 348.493591,189.456802 348.275391,189.051315 
	C346.058472,189.531372 343.841553,190.011429 341.008453,190.624908 
	C341.314301,188.708618 341.557068,187.187408 341.799835,185.666214 
M379.119019,188.880035 
	C390.387604,186.019501 394.963776,174.149323 392.518066,165.456818 
	C389.482849,154.668915 379.097809,149.175400 368.298248,152.070511 
	C359.985901,154.298828 351.726898,165.060501 354.996704,175.550369 
	C358.071259,185.413788 368.781677,191.868851 379.119019,188.880035 
z"/>
<path fill="#0C90A1" opacity="1.000000" stroke="none" 
	d="
M111.069458,295.640656 
	C96.707565,300.165894 82.502563,305.311920 67.927917,308.995300 
	C58.410847,311.400482 48.337013,312.363312 38.774536,307.867432 
	C34.032146,305.637756 30.286018,299.516418 31.063459,294.188599 
	C32.056335,287.384460 34.323551,280.897400 40.064651,276.668945 
	C45.527843,272.645203 52.285805,272.238770 58.599895,273.330048 
	C76.312675,276.391388 92.712242,283.278015 108.371613,291.982819 
	C108.798271,292.220001 109.128784,292.630127 109.846619,293.411194 
	C110.482559,294.455383 110.776009,295.048035 111.069458,295.640656 
z"/>
<path fill="#0C90A0" opacity="1.000000" stroke="none" 
	d="
M103.252518,247.101288 
	C91.864914,238.912155 79.997101,231.298508 69.255402,222.335297 
	C61.867332,216.170456 55.659031,208.432846 49.685902,200.801392 
	C46.893791,197.234100 44.803131,192.466278 47.435966,187.394562 
	C50.364429,181.753372 55.464951,179.472183 61.274422,178.919846 
	C72.250252,177.876328 80.224846,183.206589 85.367676,192.364182 
	C89.767830,200.199326 93.321884,208.524475 97.001740,216.744110 
	C99.451157,222.215347 101.792755,227.781036 103.549057,233.499054 
	C104.606857,236.942978 104.449623,240.760086 104.636909,244.851746 
	C104.041122,245.896423 103.646820,246.498840 103.252518,247.101288 
z"/>
<path fill="#5F2F1F" opacity="1.000000" stroke="none" 
	d="
M246.072021,103.034576 
	C244.083359,100.824631 242.094696,98.614685 240.140778,96.443336 
	C240.210266,96.032120 240.147522,95.552002 240.335541,95.414345 
	C246.463425,90.927536 244.985504,84.737625 243.367950,79.081070 
	C241.452530,72.382980 241.508774,66.796120 247.051895,61.680763 
	C248.571854,60.278103 248.425003,57.069248 248.859695,55.395195 
	C252.985992,53.562611 257.013916,51.695026 261.105438,49.979115 
	C265.052094,48.323948 268.739990,48.319817 272.032013,51.701942 
	C272.862885,52.555573 274.989685,53.402214 275.650574,52.957771 
	C279.211395,50.563229 281.578552,53.185104 283.384399,55.067909 
	C286.423248,58.236237 289.251282,61.838753 291.207855,65.740150 
	C292.790436,68.895790 293.905304,70.891373 297.686066,69.091850 
	C298.272797,68.812576 299.231262,69.314247 300.295105,69.504303 
	C300.169891,74.600052 298.028473,77.971954 292.741089,79.593849 
	C289.483673,79.653961 286.873810,80.157967 284.316345,79.965530 
	C279.799652,79.625671 277.099762,81.449905 275.870941,85.744743 
	C275.115387,88.385437 274.226166,90.987877 273.360779,93.721863 
	C272.101990,93.721863 270.716309,93.721863 268.991577,93.721863 
	C268.991577,91.283852 269.107697,89.148636 268.966248,87.030632 
	C268.708710,83.174789 266.659607,81.481285 262.726471,82.037270 
	C258.103424,82.690773 256.211975,86.333138 257.554932,92.243820 
	C259.250366,99.705917 255.638199,103.704712 248.288467,102.579620 
	C247.589249,102.472580 246.812683,102.870880 246.072021,103.034576 
z"/>
<path fill="#FFA801" opacity="1.000000" stroke="none" 
	d="
M161.769547,406.141418 
	C159.727051,409.718872 156.641556,410.573151 152.637833,410.410400 
	C145.176773,410.107056 137.693939,410.291534 130.220749,410.348297 
	C123.312218,410.400757 120.340630,407.766388 120.345757,400.715942 
	C120.353104,390.624390 120.703400,380.533081 121.690964,370.109192 
	C128.467239,369.781860 134.459824,369.787018 140.791046,369.748413 
	C142.272385,369.734039 143.415085,369.763397 145.032654,369.908813 
	C146.152283,369.946411 146.797043,369.867920 147.880142,369.747223 
	C153.074158,369.705017 157.829803,369.705017 163.164291,369.705017 
	C163.164291,376.811646 163.164291,383.408417 163.100769,390.465515 
	C162.614685,395.997711 162.192123,401.069550 161.769547,406.141418 
z"/>
<path fill="#068BA3" opacity="1.000000" stroke="none" 
	d="
M121.859680,269.919281 
	C122.786583,253.767212 129.644073,240.515274 141.705292,229.931030 
	C143.618744,228.251862 146.197922,227.331314 149.188889,225.911591 
	C153.308289,225.919479 156.990891,225.291748 160.049408,226.394653 
	C166.514511,228.725952 164.771011,234.808243 164.703308,240.053009 
	C161.306961,246.508667 158.231918,252.757996 154.855621,259.164337 
	C153.926971,260.488495 153.299561,261.655640 152.372803,262.993103 
	C148.479721,267.356689 145.169006,271.841522 141.223175,275.672119 
	C135.856674,280.881836 130.004898,285.591705 124.143501,290.228394 
	C123.237732,287.598755 122.549698,285.256653 121.908722,282.459045 
	C121.923752,277.975403 121.891716,273.947357 121.859680,269.919281 
z"/>
<path fill="#C82D30" opacity="1.000000" stroke="none" 
	d="
M302.013916,359.625336 
	C300.266022,354.232208 298.427429,348.620483 297.089294,342.891846 
	C294.873108,333.404297 293.066895,323.821625 290.913818,314.318451 
	C289.771912,309.278259 288.470734,304.858459 293.528412,300.476624 
	C295.902924,298.419403 295.823792,293.530060 296.892120,289.544312 
	C297.870331,288.857208 298.794373,288.463409 299.758484,288.256104 
	C309.102356,286.247162 310.803131,287.768005 313.310730,296.888184 
	C315.883331,306.244781 319.456543,315.326202 322.580200,324.881653 
	C315.898773,335.870178 309.217712,346.498169 302.589172,357.158783 
	C302.220062,357.752502 302.285095,358.616180 302.013916,359.625336 
z"/>
<path fill="#6F4437" opacity="1.000000" stroke="none" 
	d="
M165.024628,239.846649 
	C164.771011,234.808243 166.514511,228.725952 160.049408,226.394653 
	C156.990891,225.291748 153.308289,225.919479 149.503448,225.716156 
	C148.662338,220.008118 148.476791,214.314011 147.735504,208.693176 
	C146.381683,198.427780 144.595032,188.219833 143.203354,177.958847 
	C142.630798,173.737259 146.737366,169.003586 151.269775,168.069107 
	C156.624603,166.965103 161.962311,168.965805 163.048996,173.342712 
	C165.061630,181.449097 166.436447,189.715408 168.023727,197.925385 
	C169.437332,205.236954 170.779053,212.562424 172.534973,219.947052 
	C172.927017,225.064407 172.936584,230.116470 172.640335,235.376129 
	C171.933853,234.569504 171.533188,233.555283 170.930298,232.029129 
	C168.737717,234.931503 166.881180,237.389069 165.024628,239.846649 
z"/>
<path fill="#FCA072" opacity="1.000000" stroke="none" 
	d="
M245.974136,103.365433 
	C246.812683,102.870880 247.589249,102.472580 248.288467,102.579620 
	C255.638199,103.704712 259.250366,99.705917 257.554932,92.243820 
	C256.211975,86.333138 258.103424,82.690773 262.726471,82.037270 
	C266.659607,81.481285 268.708710,83.174789 268.966248,87.030632 
	C269.107697,89.148636 268.991577,91.283852 268.991577,93.721863 
	C270.716309,93.721863 272.101990,93.721863 273.360779,93.721863 
	C274.226166,90.987877 275.115387,88.385437 275.870941,85.744743 
	C277.099762,81.449905 279.799652,79.625671 284.316345,79.965530 
	C286.873810,80.157967 289.483673,79.653961 292.392700,79.604759 
	C292.145294,80.528290 291.190125,81.255257 291.068146,82.102211 
	C290.341827,87.145409 289.633270,92.204384 289.285950,97.283157 
	C289.121246,99.692230 289.769623,102.156906 290.124817,105.251572 
	C288.999634,105.380363 287.370667,105.566833 285.275208,105.806702 
	C285.721802,113.318764 280.324371,107.757622 276.702087,108.368065 
	C278.443146,109.951088 279.711609,111.104401 281.154175,112.416039 
	C279.631989,114.953766 278.098846,117.509796 276.620514,119.974426 
	C273.298126,118.659668 270.346863,117.491760 266.998352,115.882507 
	C261.298370,112.205063 255.995636,108.968956 250.929550,105.877289 
	C250.929550,112.395920 250.929550,118.758766 250.590698,125.042068 
	C246.264267,121.900780 242.175217,118.956757 238.373459,115.679443 
	C237.599457,115.012207 237.906601,113.090805 237.715347,111.747559 
	C240.435638,109.063797 243.155945,106.380035 245.974136,103.365433 
z"/>
<path fill="#6C493B" opacity="1.000000" stroke="none" 
	d="
M202.027557,317.127869 
	C199.750412,321.991028 196.698227,326.648621 195.343567,331.756378 
	C191.506851,346.222961 188.412109,360.885101 184.933487,375.448273 
	C182.412781,386.001068 179.834686,396.542633 177.041138,407.024933 
	C176.656586,408.467896 174.879532,409.539703 173.747162,410.783325 
	C173.204208,409.213531 171.927322,407.482513 172.231293,406.098755 
	C175.436523,391.507629 178.907471,376.975037 182.277679,362.419922 
	C185.154602,349.995148 188.022873,337.568176 190.807907,325.122681 
	C191.066422,323.967407 190.696167,322.671448 189.511948,321.288757 
	C188.034637,327.374298 186.493744,333.445221 185.091431,339.548004 
	C180.021500,361.612213 175.082108,383.707153 169.834671,405.728790 
	C169.274979,408.077576 169.458160,412.814362 164.273926,410.054565 
	C165.144958,404.592834 166.030319,399.787933 166.953461,394.562775 
	C168.968170,386.015320 171.171219,377.935028 172.869202,369.749939 
	C175.440460,357.355133 177.639099,344.883331 180.036316,332.452026 
	C181.844910,323.073029 181.872971,323.078430 173.454102,322.613861 
	C183.161041,320.633057 192.594299,318.880463 202.027557,317.127869 
z"/>
<path fill="#FEC548" opacity="1.000000" stroke="none" 
	d="
M453.228180,87.969353 
	C452.936005,96.105423 452.431732,104.251083 451.558105,112.356934 
	C451.124969,116.375587 450.012512,120.321022 448.564880,124.644958 
	C441.803497,124.990250 435.684662,124.990112 429.565857,124.990067 
	C420.523041,124.990005 420.522827,124.990021 420.719971,115.745232 
	C420.723480,115.580368 420.750275,115.415985 420.828308,114.770973 
	C420.862488,108.741028 420.834503,103.191498 420.806519,97.641960 
	C420.806519,95.848846 420.806519,94.055733 420.806519,92.637375 
	C431.674652,91.052498 442.269196,89.507507 453.228180,87.969353 
z"/>
<path fill="#C82D30" opacity="1.000000" stroke="none" 
	d="
M279.029358,329.508362 
	C280.338287,327.019257 281.915100,325.052948 282.799988,322.813263 
	C283.690918,320.558380 283.893951,318.031708 284.628387,314.526611 
	C285.675964,316.256226 286.554077,317.154083 286.803864,318.201782 
	C290.165527,332.301453 293.486755,346.411316 296.683197,360.549164 
	C297.148895,362.608917 296.914734,364.826843 296.723389,367.472748 
	C296.012115,368.668152 295.581818,369.362427 294.817841,370.124146 
	C293.279022,372.068024 292.073883,373.944458 290.584717,375.996582 
	C288.588043,376.080597 286.875427,375.988892 285.100403,375.544495 
	C280.472931,372.376862 275.907867,369.561951 271.342804,366.747040 
	C269.169617,360.787384 272.408661,355.512146 273.619171,350.031128 
	C275.114807,343.259155 277.176636,336.612213 279.029358,329.508362 
z"/>
<path fill="#E64E4F" opacity="1.000000" stroke="none" 
	d="
M344.978119,373.974152 
	C340.916107,371.536011 343.872803,367.980072 344.287689,365.493256 
	C347.081360,348.747375 350.482269,332.102478 353.719513,315.431305 
	C354.180023,313.059875 354.819305,310.723175 355.742676,308.252899 
	C359.595490,325.659576 363.004974,343.199554 366.626312,360.695709 
	C367.436157,364.608368 370.056641,368.524536 365.298370,371.600983 
	C364.595917,372.055176 363.524780,371.939087 361.904266,372.129913 
	C355.782227,372.773407 350.380188,373.373779 344.978119,373.974152 
z"/>
<path fill="#1A4BB5" opacity="1.000000" stroke="none" 
	d="
M263.468262,198.954697 
	C262.483734,190.857758 261.914276,182.763748 261.569122,174.351624 
	C267.363129,181.033371 267.371735,181.046082 274.773468,176.043365 
	C278.701111,173.388763 282.703125,170.825500 286.466522,167.952438 
	C289.586823,165.570312 292.658295,163.506546 296.938416,164.615005 
	C294.174438,167.801895 297.749268,176.520844 302.588867,178.393295 
	C303.096497,181.678986 300.690125,183.084595 299.066284,185.393112 
	C296.406708,189.174026 289.478394,188.869263 290.209900,195.361816 
	C281.582916,196.680298 272.733154,197.818954 263.468262,198.954697 
z"/>
<path fill="#FCA072" opacity="1.000000" stroke="none" 
	d="
M420.511139,97.485825 
	C420.834503,103.191498 420.862488,108.741028 420.508972,114.703278 
	C418.538788,114.949356 416.920898,114.921097 415.366302,114.593063 
	C406.954254,112.817986 400.108154,115.397232 395.945679,121.695023 
	C394.586517,121.567810 393.255402,121.732567 391.589233,121.922318 
	C389.658386,122.015419 388.062561,122.083511 386.063538,121.970100 
	C383.704651,121.484894 381.748993,121.181198 379.972382,120.598038 
	C379.443237,118.835663 378.735077,117.352768 377.984039,115.519989 
	C377.107635,114.475121 376.274109,113.780144 375.440582,113.085167 
	C375.983521,111.816841 377.338623,110.135567 376.937744,109.347160 
	C374.313782,104.186577 378.863770,101.733864 381.321442,99.646332 
	C384.710693,96.767479 389.357239,95.280319 393.619446,93.584526 
	C394.595306,93.196259 396.567200,94.022377 397.455536,94.913094 
	C403.073608,100.546089 409.773499,99.116562 416.434814,98.119797 
	C417.706085,97.929565 418.955994,97.596733 420.511139,97.485825 
z"/>
<path fill="#0C90A0" opacity="1.000000" stroke="none" 
	d="
M202.267517,316.923035 
	C192.594299,318.880463 183.161041,320.633057 173.043137,322.684875 
	C166.994034,324.452484 161.629593,325.920776 156.089783,327.121399 
	C156.071625,324.427307 156.228851,322.000885 156.555359,319.854156 
	C157.368195,320.138733 158.245941,320.422119 158.620590,320.107117 
	C165.477921,314.341217 172.274918,308.503510 179.084717,302.681061 
	C183.326721,301.462982 187.502975,299.869415 191.825714,299.112244 
	C198.808136,297.889191 204.762299,300.848450 210.710617,305.269531 
	C211.732834,307.894897 212.354797,310.006012 212.976746,312.117065 
	C209.486984,313.650787 205.997238,315.184509 202.267517,316.923035 
z"/>
<path fill="#0C90A0" opacity="1.000000" stroke="none" 
	d="
M132.716248,339.596710 
	C127.856857,334.980042 121.919464,335.772919 116.090919,336.421478 
	C104.960251,337.659973 93.962234,336.961456 83.132072,334.220520 
	C79.324867,333.256989 78.856750,331.217255 81.544991,328.315094 
	C86.970779,322.457489 94.133568,320.130035 101.730316,319.027832 
	C113.941376,317.256165 123.093765,322.525970 130.841690,333.325989 
	C130.573013,331.208069 130.485443,330.517822 130.774200,329.849243 
	C131.672440,333.112854 132.194351,336.354797 132.716248,339.596710 
z"/>
<path fill="#FCA072" opacity="1.000000" stroke="none" 
	d="
M341.473022,185.860352 
	C341.557068,187.187408 341.314301,188.708618 341.008453,190.624908 
	C343.841553,190.011429 346.058472,189.531372 348.275391,189.051315 
	C348.493591,189.456802 348.711761,189.862305 348.929932,190.267792 
	C345.669861,193.261124 342.409790,196.254471 338.788635,199.736664 
	C337.986542,200.942520 337.545532,201.659531 337.134155,202.328369 
	C340.823425,202.855270 344.166565,203.663925 347.508179,203.657654 
	C348.979706,203.654892 350.448151,201.995193 351.917999,201.087769 
	C354.653381,199.933792 357.388763,198.779816 360.744232,197.364258 
	C360.284241,198.805618 359.984039,199.746368 359.787109,201.212402 
	C356.350311,204.844833 352.810181,207.951981 348.947632,211.179184 
	C347.773621,211.497620 346.922028,211.695999 345.720581,211.937943 
	C344.548828,212.294449 343.726898,212.607376 342.904999,212.920319 
	C341.205994,213.280685 339.506989,213.641037 337.405121,213.651825 
	C330.781860,212.312469 324.561432,211.322678 318.341034,210.332870 
	C317.702179,205.734802 317.063293,201.136734 316.413757,196.218628 
	C318.218109,196.227264 320.255249,197.254639 321.808777,196.760788 
	C327.764191,194.867615 333.564423,192.486069 340.286438,189.962463 
	C340.387238,189.504410 340.766724,187.779449 341.473022,185.860352 
z"/>
<path fill="#FCA072" opacity="1.000000" stroke="none" 
	d="
M344.985870,374.218109 
	C350.380188,373.373779 355.782227,372.773407 361.595215,372.139069 
	C363.640594,378.389679 364.778473,384.873199 367.174530,390.852539 
	C368.031433,392.990906 371.930145,393.910339 374.687439,395.957916 
	C372.658844,399.630585 370.383301,402.731476 367.635620,405.880310 
	C361.580780,405.503113 355.998108,405.078003 350.415436,404.652893 
	C346.613007,402.364594 350.405487,400.700531 350.919342,398.788208 
	C352.465881,393.032898 349.456512,388.127960 347.990814,382.945984 
	C347.267334,380.388092 346.279419,377.905029 345.195343,375.169067 
	C344.979523,374.950012 344.993622,374.462067 344.985870,374.218109 
z"/>
<path fill="#FA9D6F" opacity="1.000000" stroke="none" 
	d="
M302.875916,178.141052 
	C297.749268,176.520844 294.174438,167.801895 297.252502,164.699554 
	C302.734070,159.750000 308.012115,154.982391 313.682037,150.384674 
	C316.466583,151.230316 318.859283,151.906082 321.251953,152.581848 
	C324.825867,155.329468 328.399811,158.077087 331.973724,160.824707 
	C331.597382,161.591843 331.221069,162.358963 330.844727,163.126099 
	C326.405243,162.262177 321.804535,161.865692 317.570648,160.405579 
	C313.157959,158.883759 312.282471,161.966171 309.683716,164.987778 
	C317.020660,164.987778 323.441956,164.987778 331.580078,164.987778 
	C329.602142,167.332748 328.859528,169.033600 327.626526,169.539673 
	C320.469879,172.477066 313.208740,175.162933 305.949707,177.843750 
	C305.127380,178.147430 304.096924,177.887421 302.875916,178.141052 
z"/>
<path fill="#FCA072" opacity="1.000000" stroke="none" 
	d="
M271.203064,367.083710 
	C275.907867,369.561951 280.472931,372.376862 284.814484,375.766541 
	C283.873962,377.416748 283.008942,378.422760 282.466156,379.579926 
	C280.364471,384.060425 276.165466,388.237976 280.047974,394.048157 
	C277.257446,397.859283 274.601257,401.337006 271.945068,404.814728 
	C267.061707,400.280334 262.204987,395.716766 257.284882,391.222565 
	C254.376938,388.566406 254.936829,386.293762 258.108734,384.621857 
	C265.167877,380.900909 268.110931,374.179443 271.203064,367.083710 
z"/>
<path fill="#E64E4F" opacity="1.000000" stroke="none" 
	d="
M350.146545,404.849579 
	C355.998108,405.078003 361.580780,405.503113 368.063812,405.934082 
	C373.225128,406.295746 376.969727,406.107574 379.308075,401.386719 
	C380.642456,398.692749 383.332184,396.670166 385.411621,394.345276 
	C391.735229,398.033600 398.058838,401.721893 404.654419,406.060516 
	C403.450958,407.814484 401.985901,409.861328 400.498413,409.877716 
	C383.233398,410.068146 365.965057,409.952026 348.697571,409.917114 
	C345.123810,407.332367 347.372711,406.158295 350.146545,404.849579 
z"/>
<path fill="#E84D4F" opacity="1.000000" stroke="none" 
	d="
M304.831055,404.119812 
	C306.029816,405.640289 307.228577,407.160767 308.427368,408.681244 
	C308.094208,409.112091 307.761047,409.542969 307.427887,409.973846 
	C289.218536,409.973846 271.009186,409.973846 252.320282,410.027283 
	C251.336365,408.569519 250.832001,407.058319 250.037430,404.677612 
	C257.663422,405.133728 264.227356,405.526337 271.682495,405.955536 
	C276.113831,406.451691 278.924103,405.836029 281.212006,402.475403 
	C282.987274,399.867798 285.882721,398.022766 288.625061,395.874634 
	C291.648468,397.280518 294.327087,398.650604 297.173645,400.299896 
	C298.529297,401.059906 299.717102,401.540710 301.166779,402.207886 
	C302.562775,402.969421 303.696930,403.544617 304.831055,404.119812 
z"/>
<path fill="#92BEC0" opacity="1.000000" stroke="none" 
	d="
M132.947937,339.877380 
	C132.194351,336.354797 131.672440,333.112854 130.936417,329.635315 
	C129.596603,320.341797 129.389847,310.990967 122.504700,303.777466 
	C121.144592,302.352478 119.817245,300.896210 118.376953,298.995789 
	C118.517365,298.315887 118.777588,298.124359 119.059784,297.962646 
	C120.287781,298.605530 121.515785,299.248444 124.258972,300.684601 
	C121.461998,285.602692 116.705704,272.394012 110.524094,259.265503 
	C111.199448,258.541595 111.617332,258.260040 112.035217,257.978485 
	C114.224991,263.084747 116.414757,268.191040 118.849518,274.022064 
	C120.016891,277.469421 120.939278,280.191986 121.861664,282.914581 
	C122.549698,285.256653 123.237732,287.598755 124.028656,290.580383 
	C128.016434,307.139862 131.966751,323.044220 135.748810,338.988556 
	C136.983414,344.193329 137.927628,349.479553 138.733643,354.769806 
	C139.492249,359.748962 139.893768,364.782532 140.452393,369.792145 
	C134.459824,369.787018 128.467239,369.781860 122.065964,369.768768 
	C125.977142,369.672455 130.317200,369.788239 134.603958,369.364777 
	C135.807175,369.245911 137.927185,367.378998 137.807709,366.589020 
	C136.470566,357.747620 134.777130,348.960052 132.947937,339.877380 
z"/>
<path fill="#F27D4E" opacity="1.000000" stroke="none" 
	d="
M250.929550,125.121605 
	C250.929550,118.758766 250.929550,112.395920 250.929550,105.877289 
	C255.995636,108.968956 261.298370,112.205063 266.675537,115.767265 
	C264.702911,118.507278 262.655914,120.921188 260.117432,123.793732 
	C258.933960,125.653320 258.242004,127.054291 257.297302,128.966949 
	C254.967682,127.560158 252.948624,126.340881 250.929550,125.121605 
z"/>
<path fill="#FDCB43" opacity="1.000000" stroke="none" 
	d="
M250.590698,125.042068 
	C252.948624,126.340881 254.967682,127.560158 257.297302,128.966949 
	C258.242004,127.054291 258.933960,125.653320 259.869537,123.998489 
	C260.395233,127.120682 260.677368,130.496719 260.684967,134.297958 
	C259.500122,135.134598 258.251068,136.156631 257.729492,135.867294 
	C247.474503,130.178253 236.876038,124.825859 231.660706,112.923515 
	C233.457077,112.248665 235.327438,111.900078 237.456573,111.649529 
	C237.906601,113.090805 237.599457,115.012207 238.373459,115.679443 
	C242.175217,118.956757 246.264267,121.900780 250.590698,125.042068 
z"/>
<path fill="#60644E" opacity="1.000000" stroke="none" 
	d="
M213.296417,311.852020 
	C212.354797,310.006012 211.732834,307.894897 211.021896,305.419189 
	C212.497696,304.713348 214.061340,304.081238 215.627396,304.075256 
	C233.831467,304.005859 252.035919,304.022552 270.240234,304.041931 
	C272.482208,304.044342 275.218109,303.456726 274.989716,307.638611 
	C273.780121,307.368866 272.583466,306.081238 271.378174,306.073151 
	C252.483780,305.946136 233.588242,305.984131 214.435760,305.984131 
	C214.127289,308.092712 213.871689,309.839844 213.296417,311.852020 
z"/>
<path fill="#E84D4F" opacity="1.000000" stroke="none" 
	d="
M375.236206,113.307541 
	C376.274109,113.780144 377.107635,114.475121 377.929504,115.880569 
	C375.941772,121.690048 373.965729,126.789055 371.726135,132.116180 
	C371.373505,133.253754 371.284363,134.163208 371.195251,135.072662 
	C370.543610,137.022171 369.891968,138.971680 369.240356,140.921188 
	C368.474091,138.941208 367.707794,136.961227 366.927979,134.181458 
	C366.885010,132.229660 366.855591,131.077667 366.826172,129.925659 
	C367.782440,123.570068 370.273376,117.982559 375.236206,113.307541 
z"/>
<path fill="#BEEDFA" opacity="1.000000" stroke="none" 
	d="
M385.214539,394.084229 
	C383.332184,396.670166 380.642456,398.692749 379.308075,401.386719 
	C376.969727,406.107574 373.225128,406.295746 368.535950,405.886169 
	C370.383301,402.731476 372.658844,399.630585 374.846832,396.171906 
	C376.374969,394.336365 377.990662,392.858643 379.500610,391.477631 
	C381.341492,392.260315 383.179474,393.041748 385.214539,394.084229 
z"/>
<path fill="#BEEDFA" opacity="1.000000" stroke="none" 
	d="
M288.280273,395.838806 
	C285.882721,398.022766 282.987274,399.867798 281.212006,402.475403 
	C278.924103,405.836029 276.113831,406.451691 272.128876,405.919861 
	C271.700226,405.668671 271.716339,405.489777 271.838745,405.062805 
	C274.601257,401.337006 277.257446,397.859283 280.326721,393.910767 
	C285.087402,388.474365 286.224274,393.601196 288.280273,395.838806 
z"/>
<path fill="#47704C" opacity="1.000000" stroke="none" 
	d="
M371.526672,224.034241 
	C372.284393,223.704132 373.503754,223.050552 374.724243,223.048477 
	C406.798584,222.993896 438.873047,223.003464 470.947479,223.026733 
	C471.754852,223.027313 472.562042,223.306046 473.653137,223.754913 
	C439.954254,224.041290 405.971558,224.027832 371.526672,224.034241 
z"/>
<path fill="#F27D4E" opacity="1.000000" stroke="none" 
	d="
M321.350952,152.221527 
	C318.859283,151.906082 316.466583,151.230316 314.002960,150.241882 
	C318.803497,146.334396 324.298340,144.679413 329.927368,143.441971 
	C330.229767,144.108307 330.532135,144.774658 330.834503,145.440994 
	C329.036407,146.594604 327.214447,147.713058 325.447906,148.913132 
	C324.079285,149.842896 322.780029,150.874725 321.350952,152.221527 
z"/>
<path fill="#807872" opacity="1.000000" stroke="none" 
	d="
M348.978699,410.279968 
	C365.965057,409.952026 383.233398,410.068146 400.498413,409.877716 
	C401.985901,409.861328 403.450958,407.814484 404.885712,406.294983 
	C406.302979,410.011261 405.852539,410.927307 401.775696,410.988403 
	C393.809387,411.107819 385.839722,411.086060 377.872192,411.024567 
	C368.334320,410.950958 358.797241,410.774628 348.978699,410.279968 
z"/>
<path fill="#47704C" opacity="1.000000" stroke="none" 
	d="
M166.915680,394.983032 
	C166.030319,399.787933 165.144958,404.592834 164.122803,409.776581 
	C163.482315,408.873535 162.978622,407.591644 162.122238,406.225586 
	C162.192123,401.069550 162.614685,395.997711 163.376328,390.712433 
	C163.881714,392.353424 164.048019,394.207855 164.212418,396.040985 
	C165.228928,395.643158 166.072311,395.313080 166.915680,394.983032 
z"/>
<path fill="#739F95" opacity="1.000000" stroke="none" 
	d="
M111.908691,257.619263 
	C111.617332,258.260040 111.199448,258.541595 110.547134,258.916321 
	C108.046791,255.238968 105.780891,251.468430 103.383751,247.399597 
	C103.646820,246.498840 104.041122,245.896423 104.683571,245.180786 
	C107.215202,249.131714 109.498688,253.195862 111.908691,257.619263 
z"/>
<path fill="#FDB528" opacity="1.000000" stroke="none" 
	d="
M366.497009,130.051971 
	C366.855591,131.077667 366.885010,132.229660 366.860046,133.755981 
	C363.108856,133.955917 359.411987,133.781525 355.427185,133.332703 
	C358.815430,132.098282 362.491638,131.138290 366.497009,130.051971 
z"/>
<path fill="#60644E" opacity="1.000000" stroke="none" 
	d="
M491.444702,213.996582 
	C492.448792,212.081879 493.921387,210.178543 495.693848,208.114960 
	C495.803955,209.374802 495.614197,210.794891 495.316162,213.025375 
	C497.351715,213.025375 499.378693,213.021774 501.405701,213.026016 
	C507.933472,213.039673 508.884766,214.088791 507.893066,220.460236 
	C507.723541,221.549423 507.078308,222.564560 506.329712,223.825470 
	C505.891327,214.024200 505.891327,214.024567 495.831390,214.019623 
	C494.525299,214.018982 493.219238,214.012009 491.444702,213.996582 
z"/>
<path fill="#47704C" opacity="1.000000" stroke="none" 
	d="
M121.908722,282.459045 
	C120.939278,280.191986 120.016891,277.469421 119.046005,274.363434 
	C119.287567,271.813354 119.577637,269.646667 119.935974,266.970032 
	C120.457840,267.953186 120.884682,268.757324 121.585602,269.740356 
	C121.891716,273.947357 121.923752,277.975403 121.908722,282.459045 
z"/>
<path fill="#739F95" opacity="1.000000" stroke="none" 
	d="
M118.840157,297.703125 
	C118.777588,298.124359 118.517365,298.315887 118.153328,298.744507 
	C115.918114,297.955811 113.808693,296.959808 111.384369,295.802246 
	C110.776009,295.048035 110.482559,294.455383 110.145065,293.617767 
	C112.940872,294.729706 115.780701,296.086639 118.840157,297.703125 
z"/>
<path fill="#47704C" opacity="1.000000" stroke="none" 
	d="
M484.903137,229.511215 
	C483.352356,224.574402 483.671997,224.055069 488.771576,224.015091 
	C494.220245,223.972366 499.669556,224.008011 505.592896,224.011627 
	C500.425446,224.342285 494.784027,224.901978 489.141876,224.909500 
	C485.936584,224.913788 484.565735,225.890701 484.903137,229.511215 
z"/>
<path fill="#030504" opacity="1.000000" stroke="none" 
	d="
M318.248840,210.721619 
	C324.561432,211.322678 330.781860,212.312469 337.017334,213.649689 
	C335.258606,213.997131 333.484833,213.997131 330.733673,213.997131 
	C330.990082,216.891953 331.201233,219.275604 331.982758,222.175720 
	C342.349091,222.840042 352.145081,222.987885 361.941040,223.135727 
	C360.452148,231.200409 358.908752,239.255508 357.487854,247.332138 
	C355.624420,257.924194 353.857513,268.533234 351.905579,279.373688 
	C350.805542,275.807800 349.452209,272.053467 348.962952,268.189697 
	C347.094910,253.437302 337.192841,246.293747 324.436981,241.855377 
	C307.512329,235.966461 289.956726,235.129990 271.789246,235.469177 
	C270.340729,233.363159 269.354584,231.493011 268.272217,229.335129 
	C267.803009,228.555786 267.430023,228.064194 267.204559,227.427155 
	C267.472137,226.989990 267.417267,226.736267 267.187439,226.520538 
	C280.925751,224.573959 294.691345,222.797775 308.390656,220.607346 
	C315.022644,219.546936 318.293304,215.930710 318.248840,210.721619 
z"/>
<path fill="#0992A4" opacity="1.000000" stroke="none" 
	d="
M174.968063,283.146606 
	C173.617126,283.997162 172.266174,284.847717 170.414948,285.840393 
	C169.289932,285.426239 168.665161,284.869904 168.024796,283.927856 
	C168.069824,281.259918 168.130463,278.977753 168.210907,276.660095 
	C168.230728,276.624634 168.182251,276.559479 168.440643,276.312744 
	C168.751907,275.376007 168.804794,274.686005 168.909866,273.595337 
	C171.024063,266.465485 173.086105,259.736389 175.148132,253.007263 
	C181.516998,241.375397 190.163315,232.273422 203.091888,227.980881 
	C205.421921,227.207260 207.821335,226.642563 210.920715,226.007233 
	C217.144806,226.396393 222.043381,227.904938 225.103943,233.386932 
	C225.076553,237.143417 225.030823,240.508133 224.671356,244.024414 
	C222.049210,247.368713 219.740784,250.561447 217.432358,253.754166 
	C207.328857,261.312714 197.225342,268.871246 186.697144,276.880310 
	C182.504333,279.269440 178.736191,281.208008 174.968063,283.146606 
z"/>
<path fill="#FEC548" opacity="1.000000" stroke="none" 
	d="
M217.794083,253.821991 
	C219.740784,250.561447 222.049210,247.368713 225.049469,244.029999 
	C230.863434,242.255508 236.009827,240.699066 241.102310,238.982666 
	C250.208160,235.913589 259.281494,232.748077 268.368439,229.622864 
	C269.354584,231.493011 270.340729,233.363159 271.362976,235.604996 
	C258.294464,240.337067 245.184753,244.682251 232.087952,249.065979 
	C227.427795,250.625809 222.798950,252.279175 217.794083,253.821991 
z"/>
<path fill="#47704C" opacity="1.000000" stroke="none" 
	d="
M175.142853,283.452881 
	C178.736191,281.208008 182.504333,279.269440 186.591553,277.217529 
	C189.836746,279.193848 192.762833,281.283417 195.862381,283.663177 
	C191.287262,284.333710 186.454025,283.088165 181.983353,286.565826 
	C179.744629,288.307281 176.583939,287.036926 175.142853,283.452881 
z"/>
<path fill="#194AB4" opacity="1.000000" stroke="none" 
	d="
M225.085617,232.995148 
	C222.043381,227.904938 217.144806,226.396393 211.312439,225.967682 
	C209.649353,220.326126 207.399979,214.780182 207.216537,209.166733 
	C206.927109,200.309708 208.024979,191.407318 208.846680,182.251160 
	C209.293015,184.107315 209.428299,186.236450 209.806305,188.945374 
	C210.062103,189.710846 210.075180,189.896515 210.088272,190.082199 
	C210.571716,201.652679 211.852005,212.931702 220.392181,221.936462 
	C223.854584,225.587250 228.013199,227.103973 232.907043,226.992508 
	C244.030991,226.739166 255.154755,226.477692 266.733032,226.370026 
	C267.417267,226.736267 267.472137,226.989990 266.891602,227.692535 
	C263.897949,228.795898 261.402496,229.718689 258.825043,230.141098 
	C247.658264,231.971222 236.616867,235.445786 225.085617,232.995148 
z"/>
<path fill="#2D64D4" opacity="1.000000" stroke="none" 
	d="
M210.310699,190.148468 
	C210.075180,189.896515 210.062103,189.710846 210.050034,189.245667 
	C210.560516,189.250977 211.070007,189.535797 211.579498,189.820618 
	C211.230713,189.951996 210.881927,190.083359 210.310699,190.148468 
z"/>
<path fill="#47704C" opacity="1.000000" stroke="none" 
	d="
M343.214325,213.213013 
	C343.726898,212.607376 344.548828,212.294449 345.930603,212.312042 
	C346.647034,212.697098 346.803467,212.799057 346.960144,212.799469 
	C375.629059,212.875656 404.298065,212.967804 432.966827,212.922806 
	C434.031891,212.921143 435.094818,211.580048 436.158752,210.863144 
	C436.430725,211.661041 436.702728,212.458923 437.001404,213.590561 
	C406.995453,213.948486 376.962830,213.978088 346.930237,213.976044 
	C345.794708,213.975967 344.659180,213.669434 343.214325,213.213013 
z"/>
<path fill="#47704C" opacity="1.000000" stroke="none" 
	d="
M362.014709,222.840790 
	C352.145081,222.987885 342.349091,222.840042 332.271851,222.381210 
	C342.023163,222.228760 352.055786,222.387314 362.014709,222.840790 
z"/>
<path fill="#000000" opacity="1.000000" stroke="none" 
	d="
M175.078705,252.592255 
	C173.086105,259.736389 171.024063,266.465485 168.644226,273.826782 
	C168.278381,275.159149 168.230316,275.859314 168.182251,276.559479 
	C168.182251,276.559479 168.230728,276.624634 167.851883,276.754089 
	C161.596680,272.144928 155.226028,267.746918 155.156860,259.007324 
	C158.231918,252.757996 161.306961,246.508667 164.703308,240.053009 
	C166.881180,237.389069 168.737717,234.931503 170.930298,232.029129 
	C171.533188,233.555283 171.933853,234.569504 172.584198,235.784607 
	C173.558990,241.382751 174.284119,246.779984 175.078705,252.592255 
z"/>
<path fill="#020302" opacity="1.000000" stroke="none" 
	d="
M179.056671,302.282654 
	C172.274918,308.503510 165.477921,314.341217 158.620590,320.107117 
	C158.245941,320.422119 157.368195,320.138733 156.681519,319.481750 
	C158.063568,313.836853 159.488708,308.844055 161.204498,303.635345 
	C162.743713,299.950500 163.595474,296.258087 165.379532,293.090790 
	C166.579559,290.960297 169.098068,289.572479 171.026733,287.852417 
	C171.026733,287.852417 171.017578,287.980164 171.197021,288.205597 
	C171.883331,288.842804 172.390167,289.254578 172.897003,289.666382 
	C177.427155,292.491241 179.122742,296.738647 179.056671,302.282654 
z"/>
<path fill="#000000" opacity="1.000000" stroke="none" 
	d="
M305.149658,404.052429 
	C303.696930,403.544617 302.562775,402.969421 301.310669,401.888794 
	C301.446198,400.783386 302.021210,400.111572 301.905548,399.594055 
	C299.702820,389.737366 297.418762,379.898926 295.151550,370.056671 
	C295.581818,369.362427 296.012115,368.668152 296.705261,367.908173 
	C300.059296,379.712311 303.152649,391.581604 306.206299,403.461090 
	C306.233154,403.565582 305.726074,403.807373 305.149658,404.052429 
z"/>
<path fill="#739F95" opacity="1.000000" stroke="none" 
	d="
M170.920547,287.588165 
	C169.098068,289.572479 166.579559,290.960297 165.379532,293.090790 
	C163.595474,296.258087 162.743713,299.950500 161.049316,303.410767 
	C160.057632,302.929047 159.511810,302.455994 159.098236,301.623718 
	C160.095001,299.034149 160.998672,296.817963 161.814606,294.569946 
	C162.964798,291.401001 164.050018,288.208527 165.541611,285.082214 
	C166.626938,284.863434 167.333664,284.588501 168.040405,284.313599 
	C168.665161,284.869904 169.289932,285.426239 170.193588,286.113129 
	C170.586441,286.603790 170.700394,286.963837 170.920547,287.588165 
z"/>
<path fill="#739F95" opacity="1.000000" stroke="none" 
	d="
M172.771118,289.449463 
	C172.390167,289.254578 171.883331,288.842804 171.261032,288.208130 
	C171.645462,288.401031 172.145355,288.816803 172.771118,289.449463 
z"/>
<path fill="#030504" opacity="1.000000" stroke="none" 
	d="
M436.385223,210.507141 
	C435.094818,211.580048 434.031891,212.921143 432.966827,212.922806 
	C404.298065,212.967804 375.629059,212.875656 346.960144,212.799469 
	C346.803467,212.799057 346.647034,212.697098 346.280457,212.268463 
	C346.922028,211.695999 347.773621,211.497620 349.250671,211.310974 
	C357.397034,212.732544 360.042725,206.387711 364.141571,202.354279 
	C370.426086,202.939301 376.712158,203.508469 382.994690,204.113983 
	C388.789581,204.672470 394.580750,205.270004 401.082642,205.815994 
	C406.575897,202.470673 410.198059,199.064835 409.516693,192.078354 
	C408.192780,178.502777 407.924377,164.824707 407.196594,151.190292 
	C406.922241,146.050400 406.586487,140.913773 406.332092,136.666672 
	C402.245178,135.607880 399.195465,134.817795 396.093445,133.672577 
	C396.018677,129.540619 395.996185,125.763802 395.973724,121.986984 
	C400.108154,115.397232 406.954254,112.817986 415.366302,114.593063 
	C416.920898,114.921097 418.538788,114.949356 420.446808,115.183685 
	C420.750275,115.415985 420.723480,115.580368 420.719971,115.745232 
	C420.522827,124.990021 420.523041,124.990005 429.565857,124.990067 
	C435.684662,124.990112 441.803497,124.990250 448.378845,124.991882 
	C448.802887,128.112610 449.010712,131.256378 448.694702,134.346573 
	C447.547363,145.567505 446.355042,156.787247 444.916565,167.973602 
	C444.116180,174.197723 442.654449,180.334717 441.763031,186.550003 
	C441.246246,190.153366 441.269440,193.834183 441.012024,198.103912 
	C443.345886,200.283844 445.643951,198.407959 446.658203,195.923279 
	C450.201508,187.243118 453.789825,178.528305 456.461945,169.558823 
	C459.908813,157.988708 462.527283,146.169891 465.416229,134.436935 
	C466.081421,131.735306 466.395996,128.947327 467.800995,125.955368 
	C469.270538,130.638672 470.833130,135.295181 472.189972,140.010910 
	C474.917023,149.489120 477.405457,159.037354 480.226410,168.486816 
	C483.434204,179.232239 486.927734,189.892075 490.229065,200.610046 
	C491.050934,203.278351 493.985138,206.346786 489.266968,208.344238 
	C488.041016,208.863266 486.744080,209.550232 485.470459,209.570251 
	C469.185181,209.826355 452.898224,209.975113 436.385223,210.507141 
z"/>
<path fill="#EA8B01" opacity="1.000000" stroke="none" 
	d="
M378.726746,188.973633 
	C368.781677,191.868851 358.071259,185.413788 354.996704,175.550369 
	C351.726898,165.060501 359.985901,154.298828 368.298248,152.070511 
	C379.097809,149.175400 389.482849,154.668915 392.518066,165.456818 
	C394.963776,174.149323 390.387604,186.019501 378.726746,188.973633 
M376.426392,168.008652 
	C379.142029,168.427094 381.857666,168.845520 384.649384,169.275681 
	C384.844299,163.355545 380.998016,159.396500 375.321075,158.993225 
	C367.338287,158.426117 364.198822,160.358963 363.409210,166.456070 
	C367.459656,166.971954 371.515869,167.488571 376.426392,168.008652 
M378.045563,174.219711 
	C373.799316,173.722855 369.562225,173.076553 365.301544,172.814667 
	C363.913300,172.729355 362.463379,173.646896 361.041687,174.105789 
	C362.070831,175.462173 362.905884,177.748505 364.163330,178.010956 
	C369.114319,179.044312 374.296844,179.027649 379.203003,180.198608 
	C383.533234,181.232101 384.086273,178.975021 384.891510,175.525558 
	C382.597412,175.190735 380.697998,174.913513 378.045563,174.219711 
M371.428650,172.009979 
	C374.030853,172.342300 376.627686,172.728058 379.236877,172.990982 
	C381.551178,173.224197 383.879211,173.320938 386.201202,173.477921 
	C386.269562,172.698547 386.337921,171.919159 386.406281,171.139786 
	C377.850677,170.082764 369.295105,169.025742 360.739502,167.968719 
	C360.614349,168.753799 360.489197,169.538879 360.364014,170.323959 
	C363.749603,170.886063 367.135193,171.448151 371.428650,172.009979 
z"/>
<path fill="#FDB528" opacity="1.000000" stroke="none" 
	d="
M396.145782,134.027710 
	C399.195465,134.817795 402.245178,135.607880 406.332092,136.666672 
	C406.586487,140.913773 406.922241,146.050400 407.196594,151.190292 
	C407.924377,164.824707 408.192780,178.502777 409.516693,192.078354 
	C410.198059,199.064835 406.575897,202.470673 401.464539,205.750214 
	C401.425415,186.535034 401.792358,167.352036 401.967224,148.167267 
	C402.050537,139.028885 404.002350,137.869354 391.595276,137.610138 
	C391.075592,136.209702 391.046875,135.195999 391.357117,134.267899 
	C393.179321,134.244904 394.662537,134.136307 396.145782,134.027710 
z"/>
<path fill="#E64E4F" opacity="1.000000" stroke="none" 
	d="
M391.018127,134.182312 
	C391.046875,135.195999 391.075592,136.209702 391.160400,137.598358 
	C391.044678,139.744583 390.872894,141.515854 390.692352,143.377625 
	C387.203918,143.568939 385.355927,142.516846 386.364166,138.185501 
	C386.688171,136.217117 386.752411,134.956451 386.748566,133.300323 
	C386.609253,129.320450 386.537994,125.736031 386.466766,122.151604 
	C388.062561,122.083511 389.658386,122.015419 391.612061,122.385147 
	C391.652649,126.609428 391.335388,130.395874 391.018127,134.182312 
z"/>
<path fill="#FDB528" opacity="1.000000" stroke="none" 
	d="
M386.816620,133.695770 
	C386.752411,134.956451 386.688171,136.217117 386.402649,137.783447 
	C383.559235,137.401627 380.957794,136.615631 378.308319,136.058212 
	C376.229797,135.620926 374.091797,135.466324 371.587708,135.129395 
	C371.284363,134.163208 371.373505,133.253754 372.122803,132.165680 
	C374.096039,131.981430 375.409149,131.975800 377.000793,132.185547 
	C380.458435,132.832550 383.637512,133.264160 386.816620,133.695770 
z"/>
<path fill="#F27D4E" opacity="1.000000" stroke="none" 
	d="
M363.813293,202.202072 
	C360.042725,206.387711 357.397034,212.732544 349.573090,211.190918 
	C352.810181,207.951981 356.350311,204.844833 359.953186,201.406845 
	C361.172333,201.400635 362.328674,201.725250 363.813293,202.202072 
z"/>
<path fill="#47704C" opacity="1.000000" stroke="none" 
	d="
M351.500305,201.049179 
	C350.448151,201.995193 348.979706,203.654892 347.508179,203.657654 
	C344.166565,203.663925 340.823425,202.855270 337.134155,202.328369 
	C337.545532,201.659531 337.986542,200.942520 338.742065,200.066498 
	C343.065247,200.275162 347.073944,200.642868 351.500305,201.049179 
z"/>
<path fill="#020302" opacity="1.000000" stroke="none" 
	d="
M165.163025,285.026093 
	C164.050018,288.208527 162.964798,291.401001 161.814606,294.569946 
	C160.998672,296.817963 160.095001,299.034149 158.806152,301.727539 
	C157.695435,305.056366 157.015457,307.923767 156.321472,310.787781 
	C153.951462,320.568695 151.259903,330.285248 149.292786,340.146423 
	C147.336533,349.953156 146.106339,359.904724 144.557770,369.792786 
	C143.415085,369.763397 142.272385,369.734039 140.791046,369.748413 
	C139.893768,364.782532 139.492249,359.748962 138.733643,354.769806 
	C137.927628,349.479553 136.983414,344.193329 135.748810,338.988556 
	C131.966751,323.044220 128.016434,307.139862 124.246399,290.867920 
	C130.004898,285.591705 135.856674,280.881836 141.223175,275.672119 
	C145.169006,271.841522 148.479721,267.356689 152.501282,263.373291 
	C154.493240,266.808960 157.099045,269.944214 157.389053,273.280792 
	C157.883102,278.964905 161.137878,282.072998 165.163025,285.026093 
z"/>
<path fill="#020302" opacity="1.000000" stroke="none" 
	d="
M166.953476,394.562805 
	C166.072311,395.313080 165.228928,395.643158 164.212418,396.040985 
	C164.048019,394.207855 163.881714,392.353424 163.439850,390.252106 
	C163.164291,383.408417 163.164291,376.811646 163.164291,369.705017 
	C157.829803,369.705017 153.074158,369.705017 147.889709,369.401855 
	C147.663422,367.029602 147.748672,364.941010 148.088593,362.894714 
	C149.622177,353.663177 151.074646,344.413086 152.901520,335.238434 
	C153.445404,332.506989 155.112640,329.999298 156.265167,327.389069 
	C161.629593,325.920776 166.994034,324.452484 172.769440,322.913147 
	C181.872971,323.078430 181.844910,323.073029 180.036316,332.452026 
	C177.639099,344.883331 175.440460,357.355133 172.869202,369.749939 
	C171.171219,377.935028 168.968170,386.015320 166.953476,394.562805 
z"/>
<path fill="#92BEC0" opacity="1.000000" stroke="none" 
	d="
M156.089783,327.121399 
	C155.112640,329.999298 153.445404,332.506989 152.901520,335.238434 
	C151.074646,344.413086 149.622177,353.663177 148.088593,362.894714 
	C147.748672,364.941010 147.663422,367.029602 147.451355,369.444092 
	C146.797043,369.867920 146.152283,369.946411 145.032654,369.908813 
	C146.106339,359.904724 147.336533,349.953156 149.292786,340.146423 
	C151.259903,330.285248 153.951462,320.568695 156.321472,310.787781 
	C157.015457,307.923767 157.695435,305.056366 158.673920,302.086731 
	C159.511810,302.455994 160.057632,302.929047 160.758652,303.626678 
	C159.488708,308.844055 158.063568,313.836853 156.512268,319.202026 
	C156.228851,322.000885 156.071625,324.427307 156.089783,327.121399 
z"/>
<path fill="#6C493B" opacity="1.000000" stroke="none" 
	d="
M165.541611,285.082214 
	C161.137878,282.072998 157.883102,278.964905 157.389053,273.280792 
	C157.099045,269.944214 154.493240,266.808960 152.800629,263.202942 
	C153.299561,261.655640 153.926971,260.488495 154.855621,259.164337 
	C155.226028,267.746918 161.596680,272.144928 167.832062,276.789551 
	C168.130463,278.977753 168.069824,281.259918 168.024796,283.927856 
	C167.333664,284.588501 166.626938,284.863434 165.541611,285.082214 
z"/>
<path fill="#060A07" opacity="1.000000" stroke="none" 
	d="
M288.625061,395.874634 
	C286.224274,393.601196 285.087402,388.474365 280.461121,393.577393 
	C276.165466,388.237976 280.364471,384.060425 282.466156,379.579926 
	C283.008942,378.422760 283.873962,377.416748 284.876892,376.119263 
	C286.875427,375.988892 288.588043,376.080597 290.924255,376.240936 
	C293.367157,384.213287 295.186462,392.117004 297.005737,400.020691 
	C294.327087,398.650604 291.648468,397.280518 288.625061,395.874634 
z"/>
<path fill="#6C493B" opacity="1.000000" stroke="none" 
	d="
M297.173645,400.299896 
	C295.186462,392.117004 293.367157,384.213287 291.208313,376.065247 
	C292.073883,373.944458 293.279022,372.068024 294.817841,370.124146 
	C297.418762,379.898926 299.702820,389.737366 301.905548,399.594055 
	C302.021210,400.111572 301.446198,400.783386 301.048798,401.702454 
	C299.717102,401.540710 298.529297,401.059906 297.173645,400.299896 
z"/>
<path fill="#060A07" opacity="1.000000" stroke="none" 
	d="
M386.748566,133.300323 
	C383.637512,133.264160 380.458435,132.832550 377.052887,131.779510 
	C377.815399,127.731224 378.804382,124.304367 379.793335,120.877502 
	C381.748993,121.181198 383.704651,121.484894 386.063538,121.970100 
	C386.537994,125.736031 386.609253,129.320450 386.748566,133.300323 
z"/>
<path fill="#C82D30" opacity="1.000000" stroke="none" 
	d="
M379.972412,120.598038 
	C378.804382,124.304367 377.815399,127.731224 376.774353,131.564117 
	C375.409149,131.975800 374.096039,131.981430 372.386292,131.937561 
	C373.965729,126.789055 375.941772,121.690048 377.972382,116.230453 
	C378.735077,117.352768 379.443237,118.835663 379.972412,120.598038 
z"/>
<path fill="#C82D30" opacity="1.000000" stroke="none" 
	d="
M391.357117,134.267899 
	C391.335388,130.395874 391.652649,126.609428 391.947083,122.360153 
	C393.255402,121.732567 394.586517,121.567810 395.945679,121.695023 
	C395.996185,125.763802 396.018677,129.540619 396.093445,133.672577 
	C394.662537,134.136307 393.179321,134.244904 391.357117,134.267899 
z"/>
<path fill="#2D64D4" opacity="1.000000" stroke="none" 
	d="
M225.103943,233.386932 
	C236.616867,235.445786 247.658264,231.971222 258.825043,230.141098 
	C261.402496,229.718689 263.897949,228.795898 266.744080,227.837997 
	C267.430023,228.064194 267.803009,228.555786 268.272217,229.335114 
	C259.281494,232.748077 250.208160,235.913589 241.102310,238.982666 
	C236.009827,240.699066 230.863434,242.255508 225.363190,243.878418 
	C225.030823,240.508133 225.076553,237.143417 225.103943,233.386932 
z"/>
<path fill="#6C493B" opacity="1.000000" stroke="none" 
	d="
M168.440643,276.312744 
	C168.230316,275.859314 168.278381,275.159149 168.592072,274.227509 
	C168.804794,274.686005 168.751907,275.376007 168.440643,276.312744 
z"/>
<path fill="#FEFCF8" opacity="1.000000" stroke="none" 
	d="
M375.999237,168.006927 
	C371.515869,167.488571 367.459656,166.971954 363.409210,166.456070 
	C364.198822,160.358963 367.338287,158.426117 375.321075,158.993225 
	C380.998016,159.396500 384.844299,163.355545 384.649384,169.275681 
	C381.857666,168.845520 379.142029,168.427094 375.999237,168.006927 
z"/>
<path fill="#FEFCF8" opacity="1.000000" stroke="none" 
	d="
M378.422058,174.428009 
	C380.697998,174.913513 382.597412,175.190735 384.891510,175.525558 
	C384.086273,178.975021 383.533234,181.232101 379.203003,180.198608 
	C374.296844,179.027649 369.114319,179.044312 364.163330,178.010956 
	C362.905884,177.748505 362.070831,175.462173 361.041687,174.105774 
	C362.463379,173.646896 363.913300,172.729355 365.301544,172.814667 
	C369.562225,173.076553 373.799316,173.722855 378.422058,174.428009 
z"/>
<path fill="#FEFCF8" opacity="1.000000" stroke="none" 
	d="
M370.974731,172.010101 
	C367.135193,171.448151 363.749603,170.886063 360.364014,170.323959 
	C360.489197,169.538879 360.614349,168.753799 360.739502,167.968719 
	C369.295105,169.025742 377.850677,170.082764 386.406281,171.139786 
	C386.337921,171.919159 386.269562,172.698547 386.201202,173.477921 
	C383.879211,173.320938 381.551178,173.224197 379.236877,172.990982 
	C376.627686,172.728058 374.030853,172.342300 370.974731,172.010101 
z"/>
</svg>