<?xml version="1.0" standalone="no"?>
<!DOCTYPE svg PUBLIC "-//W3C//DTD SVG 20010904//EN"
 "http://www.w3.org/TR/2001/REC-SVG-20010904/DTD/svg10.dtd">
<svg version="1.0" xmlns="http://www.w3.org/2000/svg"
 width="1920.000000pt" height="1491.000000pt" viewBox="0 0 1920.000000 1491.000000"
 preserveAspectRatio="xMidYMid meet">

<g transform="translate(0.000000,1491.000000) scale(0.100000,-0.100000)"
fill="#000000" stroke="none">
<path d="M8886 13269 c-22 -12 -87 -52 -144 -91 -176 -118 -238 -135 -286 -78
l-25 30 -11 -37 c-21 -69 -24 -176 -7 -210 l16 -31 -58 -35 c-159 -99 -217
-233 -171 -397 75 -270 94 -428 65 -537 -15 -55 -26 -74 -67 -113 -71 -67 -68
-93 20 -179 110 -109 259 -171 332 -141 66 27 128 132 151 254 7 40 6 59 -10
101 -30 81 -35 136 -17 197 9 29 24 62 34 74 35 41 104 83 156 95 68 15 113 1
156 -47 55 -63 64 -97 65 -232 0 -143 1 -145 91 -140 l57 3 19 93 c37 185 104
323 171 355 20 10 86 20 168 27 209 16 263 27 360 76 90 45 159 157 159 258 0
26 -3 28 -27 22 -16 -3 -62 -9 -103 -12 -124 -10 -180 29 -180 128 -1 74 -70
163 -146 188 -27 9 -33 18 -47 68 -46 164 -158 220 -312 157 l-60 -25 -20 28
c-43 59 -119 132 -159 152 -55 26 -121 26 -170 -1z"/>
<path d="M9490 11943 c-30 -6 -44 -18 -36 -31 4 -6 22 -6 49 0 65 13 117 -7
140 -55 19 -42 43 -41 32 2 -17 67 -91 101 -185 84z"/>
<path d="M9554 11795 c-28 -29 -33 -82 -7 -92 22 -9 63 40 63 76 0 39 -25 47
-56 16z"/>
<path d="M12681 11090 c-99 -103 -188 -254 -234 -395 -44 -135 -70 -336 -60
-467 l6 -78 66 0 66 0 0 108 c0 320 72 569 206 717 50 54 51 56 34 75 -10 11
-21 37 -25 58 l-7 37 -52 -55z"/>
<path d="M7561 10793 c-356 -355 -585 -625 -806 -948 -128 -187 -268 -415
-255 -415 5 0 17 -11 25 -24 13 -19 14 -29 5 -45 -12 -23 -49 -28 -67 -10 -9
9 -21 -7 -47 -60 -20 -39 -49 -95 -64 -124 -257 -485 -452 -1153 -503 -1722
-15 -160 -18 -532 -6 -650 18 -177 -6 -48 -58 316 -176 1214 -280 1897 -300
1958 -44 132 -176 191 -363 162 -41 -6 -91 -20 -112 -31 -87 -44 -150 -156
-152 -272 0 -29 50 -403 111 -832 62 -428 111 -785 109 -794 -2 -8 -33 -28
-71 -43 -140 -58 -323 -197 -443 -337 -243 -283 -393 -660 -435 -1087 -19
-190 1 -714 24 -655 3 8 11 42 17 75 23 120 93 384 147 550 198 610 475 1072
784 1305 147 111 317 196 341 172 9 -9 2 -16 -28 -28 -204 -84 -367 -205 -515
-383 -78 -93 -176 -232 -235 -335 l-28 -50 44 31 c122 83 217 114 358 114 87
0 115 -4 185 -29 83 -28 197 -93 197 -112 0 -17 -21 -11 -74 21 -92 57 -171
81 -281 86 -155 8 -265 -29 -403 -132 -62 -47 -77 -68 -125 -176 l-24 -54 106
0 c98 0 111 -2 174 -32 74 -35 162 -112 212 -186 l33 -48 73 93 c41 51 84 107
96 123 12 17 23 28 26 25 2 -3 21 -132 41 -287 20 -155 45 -310 56 -345 52
-167 141 -246 278 -248 45 0 52 -3 52 -20 0 -12 30 37 67 107 36 70 99 183
138 249 73 122 73 122 49 133 -13 5 -33 30 -46 53 -20 38 -23 61 -26 190 -4
152 10 262 31 255 8 -2 10 -20 7 -53 -3 -27 -5 -112 -5 -189 0 -120 3 -146 20
-179 11 -22 28 -44 39 -50 15 -9 22 -6 40 18 187 254 250 331 359 443 l128
131 -18 34 c-15 28 -18 56 -17 183 1 133 4 163 31 265 38 143 60 197 74 183 7
-7 3 -36 -16 -96 -62 -204 -82 -405 -49 -501 9 -26 19 -46 23 -44 3 2 49 35
101 73 51 39 130 89 175 112 l80 41 7 89 c12 166 74 299 187 406 70 65 185
127 203 109 7 -7 -13 -22 -64 -48 -184 -97 -297 -292 -298 -514 l0 -65 -43
-18 c-23 -9 -60 -28 -81 -41 l-39 -24 53 -30 c140 -80 381 -64 664 44 78 30
95 40 108 67 14 29 25 34 184 83 93 29 270 84 394 123 509 161 490 154 484
173 -3 9 0 27 6 38 15 28 60 23 75 -7 l11 -21 94 30 c52 17 99 37 103 44 4 8
24 14 44 14 20 0 52 5 72 11 l37 11 -27 56 c-50 106 -60 97 108 111 916 75
1525 210 1583 351 17 41 8 321 -15 445 -33 185 -44 223 -64 218 -28 -7 -54 25
-47 60 l6 29 -57 -7 c-78 -10 -86 -13 -67 -32 20 -20 14 -52 -11 -69 -18 -12
-24 -11 -43 2 -26 18 -29 59 -4 74 18 11 22 11 -118 -10 -36 -5 -68 -10 -71
-10 -3 0 -4 -10 -2 -23 3 -14 -3 -29 -16 -41 -29 -26 -71 -8 -71 29 0 14 -1
25 -2 25 -2 0 -115 -16 -253 -34 -137 -19 -252 -32 -254 -30 -3 2 3 10 12 17
9 6 140 113 290 236 l274 225 -52 115 c-29 64 -96 205 -149 315 l-96 198 -23
-15 c-13 -8 -209 -148 -436 -311 -227 -163 -417 -296 -421 -296 -12 0 -210
309 -210 327 0 14 -3 14 -20 -2 -41 -37 -97 24 -58 63 14 14 50 16 63 2 7 -6
9 37 7 117 -2 94 -6 123 -15 114 -15 -15 -50 -14 -65 1 -35 35 15 99 53 68 13
-11 15 -3 15 67 0 80 0 80 -25 75 -31 -5 -55 13 -55 43 0 29 24 49 51 42 l21
-6 -6 282 c-8 332 -9 344 -39 353 -101 30 -383 205 -556 344 -132 106 -292
275 -322 338 -13 28 -28 51 -32 52 -4 0 -124 -116 -266 -257z m150 27 c26 -15
26 -66 -1 -80 -14 -8 -26 -8 -40 0 -26 14 -27 65 -2 79 21 13 20 13 43 1z
m249 -71 c9 -16 8 -26 -5 -45 -17 -27 -27 -29 -56 -14 -21 12 -25 50 -7 68 19
19 56 14 68 -9z m290 -174 c17 -20 4 -62 -21 -70 -15 -5 -28 -1 -42 14 -18 17
-19 24 -9 46 13 29 52 34 72 10z m-792 -87 c7 -7 12 -21 12 -33 0 -45 -60 -63
-80 -24 -23 41 35 90 68 57z m687 -42 c19 -28 6 -66 -21 -66 -48 0 -74 57 -36
79 27 16 40 13 57 -13z m230 4 c37 -41 -24 -97 -63 -58 -17 17 -15 44 4 62 21
21 37 20 59 -4z m-565 -116 c10 -11 11 -23 4 -42 -7 -21 -16 -27 -39 -27 -23
0 -32 6 -39 27 -11 33 6 58 39 58 12 0 28 -7 35 -16z m-291 -38 c7 -8 11 -27
9 -43 -3 -25 -7 -28 -37 -28 -25 0 -36 5 -42 21 -16 44 42 85 70 50z m1179 2
c17 -17 15 -53 -3 -68 -20 -17 -61 -5 -68 19 -11 42 42 78 71 49z m-716 -85
c10 -9 18 -23 18 -31 0 -19 -29 -52 -46 -52 -19 0 -44 29 -44 50 0 20 25 50
42 50 6 0 20 -7 30 -17z m519 7 c26 -15 26 -66 -1 -80 -14 -8 -26 -8 -40 0
-26 14 -27 65 -2 79 21 13 20 13 43 1z m-316 -51 c11 -18 -4 -57 -25 -64 -56
-18 -86 68 -30 87 16 6 45 -6 55 -23z m-1004 -40 c16 -30 -3 -69 -34 -69 -29
0 -47 17 -47 45 0 45 60 63 81 24z m323 -1 c13 -19 14 -25 2 -43 -26 -39 -76
-26 -76 19 0 46 48 62 74 24z m1127 1 c16 -30 -3 -69 -34 -69 -29 0 -47 17
-47 45 0 45 60 63 81 24z m-903 -51 c36 -36 -4 -101 -48 -78 -37 20 -21 90 20
90 9 0 21 -5 28 -12z m-420 -40 c19 -19 15 -66 -8 -78 -42 -23 -82 25 -55 66
17 26 44 31 63 12z m-280 -70 c18 -18 14 -56 -7 -68 -29 -15 -39 -13 -56 14
-13 19 -14 29 -5 45 12 23 49 28 68 9z m1640 -10 c26 -26 7 -78 -28 -78 -9 0
-25 9 -35 20 -37 41 24 97 63 58z m-590 -20 c17 -17 15 -53 -3 -68 -20 -17
-62 -5 -70 20 -14 44 41 80 73 48z m-117 -59 c13 -26 -2 -69 -25 -69 -8 0 -16
-10 -18 -22 -2 -19 -9 -23 -37 -23 -26 0 -36 5 -42 23 -7 18 -4 28 16 48 14
14 25 28 25 32 0 34 64 42 81 11z m317 9 c7 -7 12 -21 12 -33 0 -44 -60 -63
-80 -26 -14 27 -13 37 6 55 18 19 45 21 62 4z m-549 -32 c7 -8 11 -27 9 -43
-3 -25 -7 -28 -38 -28 -31 0 -35 3 -38 28 -4 32 13 57 38 57 10 0 23 -6 29
-14z m-219 -46 c25 -25 25 -32 1 -61 -16 -21 -22 -22 -45 -11 -43 19 -30 90
17 92 4 0 16 -9 27 -20z m1110 -55 c15 -19 6 -61 -16 -69 -27 -10 -53 3 -60
30 -8 30 11 54 41 54 12 0 28 -7 35 -15z m-1822 -7 c17 -17 15 -53 -3 -68 -20
-17 -62 -5 -70 20 -14 44 41 80 73 48z m1232 -4 c10 -11 11 -23 4 -42 -17 -48
-84 -38 -84 12 0 43 53 63 80 30z m358 -26 c7 -7 12 -21 12 -33 0 -12 -5 -26
-12 -33 -7 -7 -21 -12 -33 -12 -12 0 -26 5 -33 12 -7 7 -12 21 -12 33 0 12 5
26 12 33 7 7 21 12 33 12 12 0 26 -5 33 -12z m-1034 -54 c19 -18 20 -28 6 -55
-20 -37 -80 -18 -80 26 0 42 44 59 74 29z m-353 -14 c37 -20 18 -80 -26 -80
-43 0 -58 39 -28 72 19 21 27 22 54 8z m-320 -50 c26 -15 26 -66 -1 -80 -14
-8 -26 -8 -40 0 -26 14 -27 65 -2 79 21 13 20 13 43 1z m1127 -62 c30 -30 3
-82 -40 -76 -29 4 -47 50 -28 72 15 19 51 21 68 4z m383 -29 c16 -30 -3 -69
-34 -69 -29 0 -47 17 -47 45 0 45 60 63 81 24z m267 -1 c17 -17 15 -53 -3 -68
-20 -17 -62 -5 -70 20 -14 44 41 80 73 48z m-1274 -84 c9 -8 16 -24 16 -34 0
-20 -25 -50 -42 -50 -18 0 -48 32 -48 51 0 21 26 49 45 49 7 0 21 -7 29 -16z
m284 -110 c4 -38 -18 -59 -52 -50 -30 7 -41 37 -26 66 9 16 19 20 43 18 28 -3
32 -7 35 -34z m-487 -15 c16 -30 -3 -69 -34 -69 -29 0 -47 17 -47 45 0 45 60
63 81 24z m1287 9 c7 -7 12 -21 12 -33 0 -47 -62 -63 -81 -21 -22 47 33 90 69
54z m363 -29 c16 -30 -3 -69 -34 -69 -29 0 -47 17 -47 45 0 45 60 63 81 24z
m-732 -33 c7 -8 11 -27 9 -43 -2 -23 -8 -29 -35 -31 -24 -2 -34 2 -43 18 -23
44 39 93 69 56z m-1149 -65 c12 -24 4 -48 -20 -61 -37 -20 -69 16 -55 60 9 27
60 27 75 1z m1548 -97 c4 -38 -18 -59 -52 -50 -30 7 -41 37 -26 66 9 16 19 20
43 18 28 -3 32 -7 35 -34z m-680 -26 c7 -7 12 -21 12 -33 0 -12 -5 -26 -12
-33 -7 -7 -21 -12 -33 -12 -12 0 -26 5 -33 12 -7 7 -12 21 -12 33 0 12 5 26
12 33 7 7 21 12 33 12 12 0 26 -5 33 -12z m870 -40 c19 -19 15 -66 -8 -78 -42
-23 -82 25 -55 66 17 26 44 31 63 12z m-2130 -85 c4 -27 -31 -57 -57 -48 -33
10 -39 54 -11 77 20 16 25 17 44 5 12 -8 22 -23 24 -34z m617 6 c10 -29 -25
-64 -54 -54 -32 10 -39 54 -12 77 27 21 56 11 66 -23z m1093 -11 c26 -26 7
-78 -28 -78 -9 0 -25 9 -35 20 -37 41 24 97 63 58z m-1384 -44 c22 -21 21
-111 -1 -136 -19 -21 -44 -23 -61 -6 -7 7 -12 39 -12 73 0 34 5 66 12 73 17
17 44 15 62 -4z m708 -50 c14 -31 1 -57 -31 -62 -28 -4 -51 14 -51 42 0 50 62
65 82 20z m336 -66 c19 -19 15 -66 -8 -78 -30 -16 -60 4 -60 40 0 41 42 64 68
38z m780 -51 c6 -53 -38 -75 -73 -37 -15 17 -16 24 -7 46 10 21 18 25 45 22
27 -2 33 -8 35 -31z m247 -46 c0 -41 -25 -62 -52 -45 -41 26 -21 87 26 82 22
-3 26 -8 26 -37z m-517 7 c7 -7 12 -21 12 -33 0 -12 -5 -26 -12 -33 -7 -7 -21
-12 -33 -12 -12 0 -26 5 -33 12 -7 7 -12 21 -12 33 0 12 5 26 12 33 7 7 21 12
33 12 12 0 26 -5 33 -12z m-2034 -44 c31 -31 13 -74 -31 -74 -21 0 -43 25 -43
49 0 14 29 41 45 41 7 0 21 -7 29 -16z m1725 -14 c36 -19 36 -61 0 -81 -46
-24 -86 54 -41 80 21 13 20 13 41 1z m-777 -47 c24 -21 23 -45 -2 -68 -30 -27
-70 -7 -70 34 0 45 39 64 72 34z m309 7 c30 -17 26 -67 -7 -82 -23 -11 -29
-10 -45 11 -24 29 -24 36 1 61 23 23 25 23 51 10z m-651 -25 c17 -20 4 -62
-21 -70 -15 -5 -28 -1 -42 14 -18 17 -19 24 -9 46 13 29 52 34 72 10z m1928
-41 c4 -41 -19 -61 -53 -46 -18 8 -25 19 -25 40 0 37 8 44 45 40 25 -3 30 -8
33 -34z m-2570 -142 c2 -13 -6 -27 -23 -38 -24 -16 -27 -16 -45 1 -26 24 -25
50 2 69 19 13 25 14 43 2 11 -7 21 -23 23 -34z m1553 38 c26 -15 26 -66 -1
-80 -14 -8 -26 -8 -40 0 -26 14 -27 65 -2 79 21 13 20 13 43 1z m802 -21 c18
-25 11 -56 -14 -70 -28 -15 -59 6 -59 39 0 51 46 70 73 31z m-299 -45 c9 -8
16 -24 16 -34 0 -22 -25 -50 -45 -50 -19 0 -45 28 -45 47 0 20 29 53 46 53 7
0 20 -7 28 -16z m-806 -26 c7 -7 12 -21 12 -33 0 -47 -62 -63 -81 -21 -22 47
33 90 69 54z m1326 -6 c3 -5 18 -7 35 -4 55 8 68 -71 14 -84 -18 -5 -30 -2
-38 9 -9 12 -15 13 -23 5 -17 -17 -62 6 -62 31 0 36 12 51 40 51 16 0 31 -4
34 -8z m-2074 -46 c28 -35 -11 -93 -47 -70 -36 22 -23 84 17 84 10 0 23 -7 30
-14z m-306 -32 c30 -30 13 -74 -29 -74 -42 0 -59 44 -29 74 8 9 22 16 29 16 7
0 21 -7 29 -16z m3610 -5 c23 -34 6 -64 -35 -64 -30 0 -34 3 -37 28 -6 53 43
77 72 36z m-790 -28 c33 -37 -5 -88 -51 -70 -43 16 -24 87 23 89 6 0 19 -9 28
-19z m-1259 -15 c24 -36 5 -68 -38 -64 -27 2 -33 8 -35 31 -7 55 44 78 73 33z
m1520 8 c21 -21 16 -53 -10 -70 -18 -12 -24 -11 -43 2 -26 18 -28 46 -6 68 20
20 38 20 59 0z m1029 -10 c9 -8 16 -23 16 -31 0 -19 -28 -53 -43 -53 -17 0
-47 32 -47 51 0 21 26 49 45 49 7 0 21 -7 29 -16z m178 -1 c23 -21 23 -38 -2
-63 -24 -24 -34 -25 -54 -4 -21 21 -20 61 2 73 24 14 33 13 54 -6z m-2897 -64
c9 -26 -21 -61 -48 -57 -27 4 -41 30 -33 61 10 43 67 40 81 -4z m1953 -12 c6
-52 -72 -61 -84 -10 -5 20 -2 31 16 45 20 16 25 17 44 5 12 -8 22 -26 24 -40z
m597 22 c4 -5 4 -21 1 -33 -11 -46 -71 -44 -82 1 -13 50 54 77 81 32z m-2041
5 c43 -42 -10 -109 -54 -69 -26 24 -25 50 2 69 28 20 33 20 52 0z m561 -45
c11 -18 -4 -57 -25 -64 -50 -16 -82 48 -38 79 21 15 49 9 63 -15z m-2013 -25
c15 -33 1 -58 -35 -62 -34 -4 -55 34 -38 67 17 30 58 28 73 -5z m2246 -26 c7
-7 12 -21 12 -33 0 -47 -62 -63 -81 -21 -22 47 33 90 69 54z m1020 0 c30 -30
3 -83 -39 -76 -32 5 -45 31 -31 62 13 28 49 35 70 14z m-170 -20 c7 -7 12 -21
12 -33 0 -44 -60 -63 -80 -26 -14 27 -13 37 6 55 18 19 45 21 62 4z m-430 -30
c32 -32 -9 -99 -49 -78 -27 15 -34 48 -13 71 20 22 44 25 62 7z m-237 -28 c23
-13 25 -53 3 -74 -20 -20 -33 -20 -56 1 -22 20 -23 46 -2 67 18 19 28 20 55 6z
m-3091 -25 c15 -19 6 -61 -16 -69 -27 -10 -53 3 -60 30 -8 30 11 54 41 54 12
0 28 -7 35 -15z m1825 -16 c13 -20 -5 -59 -30 -65 -51 -13 -76 50 -33 80 21
15 49 9 63 -15z m645 16 c15 -19 6 -61 -16 -69 -27 -10 -53 3 -60 30 -8 30 11
54 41 54 12 0 28 -7 35 -15z m-1650 -37 c0 -40 -1 -41 -17 -26 -14 14 -15 22
-5 43 16 36 22 31 22 -17z m1250 -13 c19 -23 4 -64 -27 -71 -41 -11 -71 44
-41 74 17 17 53 15 68 -3z m160 0 c19 -22 4 -64 -25 -71 -31 -8 -55 10 -55 40
0 43 53 63 80 31z m-922 -27 c17 -17 15 -53 -3 -68 -20 -17 -62 -5 -70 20 -14
44 41 80 73 48z m3023 -9 c16 -31 -3 -69 -35 -69 -14 0 -28 5 -32 11 -4 8 -12
2 -21 -15 -22 -42 -83 -33 -83 13 0 48 42 68 74 35 15 -14 16 -14 16 3 0 44
60 60 81 22z m-1714 -7 c27 -17 19 -70 -12 -78 -31 -8 -55 10 -55 40 0 38 36
58 67 38z m1484 -13 c16 -30 -3 -69 -34 -69 -29 0 -47 17 -47 45 0 45 60 63
81 24z m404 -39 c15 -17 16 -24 7 -45 -14 -29 -66 -36 -76 -9 -23 59 28 99 69
54z m-870 -34 c27 -41 -13 -89 -55 -66 -26 14 -27 65 -2 79 27 16 40 13 57
-13z m-3494 -6 c26 -15 26 -66 -1 -80 -14 -8 -26 -8 -40 0 -26 14 -27 65 -2
79 21 13 20 13 43 1z m3211 -24 c16 -24 8 -57 -17 -68 -21 -9 -28 -8 -45 7
-26 23 -25 50 1 69 22 15 48 11 61 -8z m-1624 -8 c17 -17 15 -53 -3 -68 -20
-17 -62 -5 -70 20 -14 44 41 80 73 48z m1137 -19 c11 -18 -4 -57 -25 -64 -56
-18 -86 68 -30 87 16 6 45 -6 55 -23z m1466 -40 c16 -30 -3 -69 -34 -69 -29 0
-47 17 -47 45 0 45 60 63 81 24z m-3778 -40 c20 -27 10 -58 -19 -65 -30 -8
-54 11 -54 40 0 46 48 62 73 25z m3355 9 c7 -7 12 -21 12 -33 0 -12 -5 -26
-12 -33 -7 -7 -21 -12 -33 -12 -12 0 -26 5 -33 12 -7 7 -12 21 -12 33 0 12 5
26 12 33 7 7 21 12 33 12 12 0 26 -5 33 -12z m196 -44 c30 -30 13 -74 -29 -74
-42 0 -59 44 -29 74 8 9 22 16 29 16 7 0 21 -7 29 -16z m-1882 -11 c10 -9 18
-23 18 -31 0 -19 -29 -52 -46 -52 -19 0 -44 29 -44 50 0 20 25 50 42 50 6 0
20 -7 30 -17z m-2292 -23 c25 -25 25 -35 0 -60 -15 -15 -25 -17 -42 -11 -30
11 -37 60 -12 78 24 17 30 17 54 -7z m1591 10 c26 -15 26 -66 -1 -80 -42 -23
-82 25 -55 66 17 27 27 29 56 14z m1111 -7 c24 -21 23 -45 -2 -68 -30 -27 -70
-7 -70 34 0 45 39 64 72 34z m512 11 c39 -15 42 -65 5 -85 -41 -22 -80 27 -54
67 16 25 23 28 49 18z m-2296 -58 c4 -19 -24 -56 -41 -56 -18 0 -47 32 -47 51
0 10 10 25 22 33 19 13 25 14 43 2 11 -7 22 -21 23 -30z m2076 28 c43 -42 -10
-109 -54 -69 -26 24 -25 50 2 69 28 20 33 20 52 0z m-1006 -46 c7 -54 -71 -64
-84 -11 -6 20 -2 31 16 45 20 16 25 17 44 5 12 -8 22 -25 24 -39z m-1567 15
c6 -16 3 -29 -10 -45 -16 -20 -22 -21 -45 -10 -28 13 -35 49 -14 70 19 19 60
10 69 -15z m2139 -8 c15 -19 6 -61 -16 -69 -27 -10 -53 3 -60 30 -8 30 11 54
41 54 12 0 28 -7 35 -15z m1125 -24 c0 -60 -65 -70 -73 -12 -6 39 5 53 40 49
30 -3 33 -6 33 -37z m-3430 -55 c21 -31 5 -66 -28 -66 -62 0 -62 88 0 90 7 0
20 -11 28 -24z m1887 -12 c14 -31 1 -57 -31 -62 -28 -4 -51 14 -51 42 0 50 62
65 82 20z m-1494 -100 c4 -41 -19 -61 -53 -46 -46 21 -26 86 25 80 20 -2 26
-9 28 -34z m-619 -76 c17 -43 -31 -85 -64 -58 -18 15 -19 52 -3 68 20 20 58
14 67 -10z m211 -159 c9 -16 8 -26 -5 -45 -26 -39 -75 -26 -75 21 0 45 60 63
80 24z m2055 -69 c37 -41 -24 -97 -63 -58 -17 17 -15 44 4 62 21 21 37 20 59
-4z m-307 -2 c16 -16 15 -53 -2 -68 -21 -17 -58 -8 -67 16 -15 43 38 83 69 52z
m-278 -63 c15 -19 6 -61 -16 -69 -27 -10 -53 3 -60 30 -8 30 11 54 41 54 12 0
28 -7 35 -15z m-1750 -119 c28 -35 -11 -93 -47 -70 -36 22 -23 84 17 84 10 0
23 -7 30 -14z m-16 -218 c13 -22 -10 -68 -35 -68 -21 0 -49 26 -49 45 0 40 62
57 84 23z m-120 -220 c4 -17 2 -28 -4 -28 -5 0 -10 8 -10 18 0 9 -3 28 -6 42
-4 18 -3 21 4 10 5 -8 12 -27 16 -42z"/>
<path d="M12755 10973 c-48 -65 -119 -213 -143 -298 -24 -82 -47 -194 -41
-200 3 -2 34 -7 70 -11 l65 -6 12 78 c17 111 48 206 95 299 34 65 41 88 38
125 -5 76 -45 81 -96 13z"/>
<path d="M13315 10851 c-42 -21 -65 -25 -142 -26 l-93 0 0 -144 c0 -162 -16
-389 -34 -499 -12 -70 -12 -73 8 -77 92 -19 122 -23 128 -17 3 4 13 71 21 150
8 79 17 145 19 147 2 2 33 0 68 -5 35 -5 66 -8 68 -6 10 10 22 343 15 416 l-8
85 -50 -24z"/>
<path d="M2005 8855 c-95 -21 -249 -88 -304 -132 l-23 -19 91 -52 c315 -179
622 -423 923 -731 l175 -179 12 82 c33 235 32 426 -4 511 -8 22 -13 45 -11 52
7 18 -119 176 -205 258 -122 116 -246 185 -377 214 -69 14 -202 13 -277 -4z"/>
<path d="M1631 8656 c-83 -89 -80 -281 9 -456 62 -123 240 -365 289 -394 10
-6 47 -33 82 -60 124 -94 283 -158 468 -190 98 -17 379 -21 455 -8 l39 7 -90
110 c-244 298 -574 596 -908 820 -114 76 -308 195 -319 195 -1 0 -12 -11 -25
-24z"/>
<path d="M2925 8296 c23 -74 14 -316 -20 -508 l-14 -81 68 -86 c89 -112 179
-240 240 -341 l50 -81 12 43 c12 41 17 193 10 268 -8 78 -137 403 -242 610
-59 116 -116 211 -104 176z"/>
<path d="M2040 7678 c222 -225 620 -549 990 -810 209 -147 470 -319 470 -311
0 15 -60 177 -101 272 -86 200 -196 398 -329 589 l-72 104 -76 -8 c-126 -14
-358 -8 -456 10 -150 29 -291 79 -396 142 -25 15 -38 20 -30 12z"/>
<path d="M11200 7555 l0 -135 530 0 530 0 -5 -22 c-3 -13 -88 -502 -190 -1088
-102 -586 -188 -1072 -192 -1080 -6 -16 -12 15 -93 490 -35 201 -62 332 -81
384 -136 375 -559 633 -1233 751 -318 56 -489 69 -926 69 -383 1 -409 0 -480
-20 -72 -20 -151 -40 -196 -48 -146 -28 -668 -208 -1069 -369 -229 -92 -468
-177 -499 -177 -5 0 8 19 30 43 48 50 121 139 154 185 l23 34 -29 -15 c-16 -8
-72 -28 -124 -45 -279 -89 -525 -82 -636 19 -20 19 -21 19 -80 -22 -93 -65
-219 -175 -300 -262 -41 -44 -74 -83 -74 -87 0 -4 10 -22 23 -41 66 -98 252
-159 487 -159 86 0 120 -12 89 -30 -17 -11 -185 -5 -274 10 -166 27 -271 79
-327 162 l-24 34 -61 -77 c-86 -106 -218 -301 -301 -444 -73 -125 -193 -358
-187 -363 2 -2 17 4 34 12 42 22 46 21 59 -22 26 -85 110 -165 210 -197 l52
-17 0 -62 c0 -82 23 -155 66 -212 19 -25 34 -47 32 -47 -244 -117 -554 -374
-803 -667 l-80 -95 65 54 c212 177 540 342 860 434 254 73 575 121 874 130
l80 2 -53 40 -52 40 1117 3 c615 1 1119 0 1122 -2 3 -4 89 -360 174 -724 l31
-134 -51 -161 c-106 -334 -272 -966 -272 -1034 0 -39 69 -118 153 -175 83 -57
242 -130 372 -172 128 -42 141 -43 150 -16 3 11 10 20 13 20 6 0 223 -880 222
-902 0 -8 -158 77 -256 138 -40 24 -75 44 -79 44 -4 0 -45 -35 -92 -78 -96
-87 -197 -201 -215 -245 l-13 -29 -155 6 c-85 3 -292 9 -460 12 l-305 6 3 -76
4 -76 1023 0 c815 0 1024 3 1020 13 -2 6 -41 176 -85 377 -45 201 -101 453
-125 560 -143 638 -166 743 -163 759 4 20 720 1181 729 1181 4 0 21 -37 40
-82 115 -293 330 -802 448 -1066 l50 -112 -139 -798 c-77 -438 -142 -805 -144
-814 -4 -16 6 -18 97 -18 l102 0 43 238 c43 233 71 383 151 816 23 121 43 221
46 224 2 3 9 -7 14 -22 13 -33 23 -33 343 -1 351 36 396 47 442 109 33 44 29
171 -6 251 -27 58 -130 552 -303 1450 -31 160 -63 325 -71 368 -8 42 -13 85
-10 95 3 9 35 177 71 372 94 510 134 729 225 1220 44 239 99 536 122 660 22
124 55 299 72 390 l31 165 1757 3 1758 2 5 -22 c5 -23 45 -238 150 -808 31
-168 76 -411 100 -540 24 -129 123 -662 220 -1185 97 -522 196 -1056 220
-1185 24 -129 66 -359 94 -510 28 -151 127 -682 219 -1180 l168 -905 100 -3
100 -3 -32 188 c-18 103 -49 285 -69 403 -41 243 -91 533 -140 820 -18 107
-88 517 -155 910 -177 1041 -365 2144 -405 2380 -20 113 -74 430 -120 705 -47
275 -101 591 -120 701 -19 111 -35 207 -35 213 0 8 105 11 380 11 l380 0 0
155 0 155 -2945 0 -2945 0 0 -135z m-4819 -2044 c44 -39 119 -96 166 -128 l85
-58 -190 -5 -190 -5 -43 -30 c-38 -26 -83 -92 -101 -146 -7 -20 -49 4 -119 69
-54 50 -89 103 -89 135 0 9 47 42 118 80 64 36 153 86 197 111 44 25 81 46 83
46 1 0 39 -31 83 -69z m3717 -310 c-9 -26 -104 -180 -110 -181 -5 0 -8 15 -8
33 0 18 -7 59 -15 90 -8 32 -15 60 -15 62 0 3 34 5 76 5 42 0 74 -4 72 -9z
m-290 -539 c-1 -4 -12 -29 -23 -55 -20 -46 -35 -61 -35 -33 0 7 -3 27 -6 44
-5 26 -3 31 22 40 36 13 47 14 42 4z m-223 -129 c15 -65 34 -149 43 -186 l16
-68 -33 -92 c-18 -51 -36 -102 -38 -114 -3 -13 -9 -23 -12 -23 -4 0 -36 127
-71 283 -35 155 -65 290 -68 300 -4 15 4 17 65 17 l70 0 28 -117z m172 -1365
c-3 -8 -6 -5 -6 6 -1 11 2 17 5 13 3 -3 4 -12 1 -19z m30 -140 c-3 -8 -6 -5
-6 6 -1 11 2 17 5 13 3 -3 4 -12 1 -19z m40 -170 c-3 -8 -6 -5 -6 6 -1 11 2
17 5 13 3 -3 4 -12 1 -19z m10 -40 c-3 -8 -6 -5 -6 6 -1 11 2 17 5 13 3 -3 4
-12 1 -19z m20 -100 c-3 -8 -6 -5 -6 6 -1 11 2 17 5 13 3 -3 4 -12 1 -19z m10
-40 c-3 -8 -6 -5 -6 6 -1 11 2 17 5 13 3 -3 4 -12 1 -19z m37 -148 c4 -24 3
-29 -3 -15 -4 11 -11 36 -15 55 -4 24 -3 29 3 15 4 -11 11 -36 15 -55z m215
-240 c33 -140 105 -444 160 -674 56 -231 99 -421 97 -423 -1 -2 -23 8 -47 21
-24 13 -93 46 -152 71 -59 26 -106 49 -104 51 2 3 24 -4 48 -15 24 -11 45 -18
47 -17 3 3 -71 337 -190 856 -33 146 -62 281 -64 300 l-3 35 8 -38 c4 -20 10
-40 13 -43 3 -3 30 34 59 82 44 73 54 84 60 68 5 -10 35 -134 68 -274z"/>
<path d="M3307 7330 c-3 -36 -12 -88 -20 -116 l-13 -52 72 -145 c39 -81 87
-184 105 -231 19 -46 35 -83 37 -81 8 8 -102 457 -151 615 l-23 75 -7 -65z"/>
<path d="M4555 6206 c-5 -2 -22 -7 -37 -10 -23 -5 -32 -21 -76 -133 -99 -252
-208 -632 -255 -885 l-15 -78 48 40 c220 184 790 766 790 806 0 21 -86 129
-132 167 -71 58 -147 88 -236 93 -42 2 -81 2 -87 0z"/>
<path d="M1615 5646 c-98 -16 -141 -29 -226 -72 -59 -29 -179 -125 -179 -143
0 -4 71 -7 158 -7 168 0 236 -12 339 -59 107 -49 184 -150 199 -263 5 -42 10
-52 23 -48 105 31 428 75 609 83 l142 6 0 41 c0 58 -26 158 -54 214 -13 26
-44 66 -68 88 -37 36 -58 46 -153 72 -321 90 -586 119 -790 88z"/>
<path d="M2631 5454 c42 -61 69 -145 76 -235 l6 -76 166 -6 c231 -8 519 -52
722 -111 46 -13 85 -23 86 -22 5 4 -465 241 -575 290 -120 54 -311 132 -429
175 l-83 30 31 -45z"/>
<path d="M1310 5393 c-147 -14 -134 -8 -164 -71 -44 -93 -66 -196 -73 -333 -6
-139 3 -198 44 -287 61 -131 213 -223 415 -251 61 -8 65 -7 138 29 223 113
404 300 490 508 17 41 30 76 28 78 -6 5 -165 -23 -283 -51 -138 -33 -320 -89
-423 -130 -91 -37 -112 -42 -112 -25 0 22 263 120 443 166 77 19 78 23 51 114
-45 151 -166 228 -394 250 -52 5 -102 9 -110 8 -8 -1 -31 -3 -50 -5z"/>
<path d="M2385 5094 c-77 -8 -145 -16 -151 -18 -5 -2 -16 -24 -23 -47 -60
-199 -247 -418 -469 -546 l-77 -45 165 6 c417 14 975 156 1794 459 131 48 131
44 1 82 -376 109 -832 149 -1240 109z"/>
<path d="M6880 4523 c-649 -51 -1252 -276 -1595 -596 l-50 -47 83 30 c150 54
373 106 722 170 63 11 125 23 138 26 19 4 23 1 18 -13 -2 -10 -25 -112 -50
-228 -58 -265 -148 -679 -186 -855 -40 -184 -93 -425 -270 -1240 -83 -382
-153 -701 -155 -707 -3 -10 11 -13 53 -13 l57 0 214 928 c117 510 260 1130
317 1377 57 248 121 524 142 615 l37 165 73 14 c40 7 75 11 78 9 2 -3 -21
-117 -51 -254 -31 -137 -67 -296 -80 -354 -13 -58 -44 -197 -70 -309 -25 -112
-84 -373 -130 -580 -46 -207 -111 -495 -144 -641 -33 -146 -89 -397 -125 -557
-37 -161 -72 -320 -80 -353 l-14 -60 48 0 c47 0 49 1 55 32 4 18 33 141 66
273 32 132 76 317 99 410 82 341 470 1946 519 2150 68 283 69 285 89 285 35 0
223 51 298 82 165 66 222 135 182 223 -11 25 -12 25 -127 23 -64 -1 -136 -3
-161 -5z"/>
<path d="M3500 4130 c-293 -40 -576 -154 -726 -292 -79 -73 -92 -121 -46 -168
63 -63 204 -78 831 -90 598 -11 787 -25 901 -65 l39 -14 -37 52 c-291 413
-638 620 -962 577z"/>
<path d="M12838 1371 l-154 -196 -190 1 c-104 0 -307 4 -451 8 -256 7 -262 7
-282 -13 -26 -26 -27 -63 -3 -84 17 -16 98 -17 954 -17 893 0 936 1 951 18 23
25 21 53 -5 91 -21 30 -145 103 -604 355 l-61 34 -155 -197z"/>
</g>
</svg>
